<?xml version="1.0" encoding="UTF-8"?>
<svg width="632px" height="150px" viewBox="0 0 632 150" version="1.1" xmlns="http://www.w3.org/2000/svg" xmlns:xlink="http://www.w3.org/1999/xlink">
    <!-- Generator: Sketch 63.1 (92452) - https://sketch.com -->
    <title>Group 21</title>
    <desc>Created with Sketch.</desc>
    <g id="Assets" stroke="none" stroke-width="1" fill="none" fill-rule="evenodd">
        <g id="Group-21">
            <rect id="Rectangle" stroke-opacity="0.1" stroke="#111111" fill="#FFFFFF" x="0.5" y="0.5" width="631" height="149"></rect>
            <g id="Group-6" transform="translate(50.000000, 50.000000)" fill="#232A30" fill-rule="nonzero">
                <polygon id="Path" points="9.97921 6.65280665 34.0956341 6.65280665 34.0956341 8.31600832 9.97921 8.31600832"></polygon>
                <path d="M49.0644491,36.5904366 L48.2328483,36.5904366 L48.2328483,10.8108108 C48.2300058,9.32627339 47.4381985,7.95502536 46.1538462,7.20991424 L45.3222453,8.64856746 C46.0929379,9.09644615 46.5676163,9.91951985 46.5696466,10.8108108 L46.5696466,36.5904366 L45.7380458,36.5904366 L45.7380458,38.2536383 L48.2328483,38.2536383 L48.2328483,39.9168399 C48.2332543,40.3907062 48.0314449,40.8418335 47.6781769,41.1577443 L48.7875195,42.3982426 C49.4932433,41.7664209 49.8960499,40.8641664 49.8960499,39.9168399 L49.8960499,37.4220374 C49.8960499,36.9627891 49.5236974,36.5904366 49.0644491,36.5904366 Z" id="Path"></path>
                <path d="M1.66320168,39.9168399 L1.66320168,38.2536383 L17.9545381,38.2536383 C18.4844399,38.2564807 18.9924149,38.4676293 19.3680158,38.841606 C20.0574974,39.5278391 20.9897999,39.9144035 21.9627079,39.9168399 L22.4532225,39.9168399 L22.4532225,38.2536383 L21.9627079,38.2536383 C21.4323999,38.2507958 20.9248311,38.0396472 20.548824,37.6656705 C19.8597486,36.9794374 18.92704,36.592873 17.9545381,36.5904366 L3.32640335,36.5904366 L3.32640335,10.8108108 C3.3284336,9.91951985 3.803518,9.09644615 4.57380459,8.64856746 L3.74220376,7.20991424 C2.45785148,7.95502536 1.66645012,9.32627339 1.66320168,10.8108108 L1.66320168,36.5904366 L0.831600852,36.5904366 C0.372352516,36.5904366 0,36.9627891 0,37.4220374 L0,39.9168399 C0,41.7538332 1.4894101,43.2432432 3.32640335,43.2432432 L24.948025,43.2432432 L24.948025,41.5800416 L3.32640335,41.5800416 C2.40790667,41.5800416 1.66320168,40.8353366 1.66320168,39.9168399 Z" id="Path"></path>
                <path d="M7.48440751,4.15800416 C7.48440751,2.78025925 8.60146499,1.66320166 9.97921,1.66320166 L35.7588358,1.66320166 L35.7588358,5.82120582 C35.7588358,7.19895073 36.8758933,8.31600832 38.2536383,8.31600832 L42.4116424,8.31600832 L42.4116424,24.9480249 L44.0748441,24.9480249 L44.0748441,7.48440748 C44.0748441,7.46451081 44.0650988,7.44623825 44.0634746,7.42634158 C44.0581958,7.35731227 44.044796,7.28909501 44.0232751,7.22331403 C44.0135298,7.19407807 44.0050026,7.16524823 43.9928209,7.14007277 C43.9542457,7.05601933 43.9022706,6.97886892 43.8389261,6.91146372 L43.831211,6.89968815 L37.1784044,0.246881497 L37.1743438,0.246881497 C37.1045023,0.179882432 37.0232913,0.125470998 36.9347713,0.0864897089 C36.910002,0.0747141372 36.8840145,0.0682172557 36.858433,0.0588779626 C36.7873733,0.034514657 36.7130652,0.0194906445 36.637945,0.0150240125 C36.6212968,0.00812110187 36.6070848,5.68434189e-14 36.5904366,5.68434189e-14 L9.97921,5.68434189e-14 C7.68418661,0.00284239085 5.82404815,1.86257474 5.82120584,4.15800416 L5.82120584,34.9272349 L7.48440751,34.9272349 L7.48440751,4.15800416 Z M38.2536383,6.65280665 C37.7943899,6.65280665 37.4220374,6.28045416 37.4220374,5.82120582 L37.4220374,2.83913721 L41.2348947,6.65280665 L38.2536383,6.65280665 Z" id="Shape"></path>
                <polygon id="Path" points="9.97921 3.32640333 11.6424117 3.32640333 11.6424117 4.98960499 9.97921 4.98960499"></polygon>
                <polygon id="Path" points="13.3056133 3.32640333 14.968815 3.32640333 14.968815 4.98960499 13.3056133 4.98960499"></polygon>
                <polygon id="Path" points="16.6320167 3.32640333 18.2952183 3.32640333 18.2952183 4.98960499 16.6320167 4.98960499"></polygon>
                <path d="M33.2640333,21.6216216 L34.9272816,21.6216216 C34.935356,18.9733304 33.8832673,16.4318315 32.0060746,14.5639781 L31.9951111,14.5570751 C28.0982003,10.6593523 21.779577,10.6581341 17.8814481,14.5550448 C13.9837253,18.4519555 13.9829132,24.7705789 17.8794179,28.6687078 L17.887133,28.6792652 C18.8612591,29.6586701 20.0294795,30.4236779 21.3166742,30.9247499 L21.9204782,29.3748376 C21.1091801,29.0589267 20.3531055,28.6167327 19.6798661,28.0649038 L24.948025,22.7975572 L26.8548597,24.7043919 L28.0307952,23.5284563 L26.1239605,21.6216216 L31.3888708,16.3567112 C32.6070361,17.8404366 33.270124,19.7021992 33.2640333,21.6216216 L33.2640333,21.6216216 Z M19.0679411,15.7415378 C22.0877729,12.7213 26.9043984,12.4796973 30.211311,15.1824 L24.6036902,20.7900208 L16.6730282,20.7900208 C16.8598135,18.8799376 17.7068444,17.0945134 19.0679411,15.7415378 Z M22.9404886,22.4532225 L18.5083972,26.8849077 C17.4701144,25.6224824 16.8313897,24.0798792 16.6730282,22.4532225 L22.9404886,22.4532225 Z" id="Shape"></path>
                <polygon id="Path" points="9.97921 11.6424116 15.8004158 11.6424116 15.8004158 13.3056133 9.97921 13.3056133"></polygon>
                <polygon id="Path" points="9.97921 14.968815 11.6424117 14.968815 11.6424117 16.6320166 9.97921 16.6320166"></polygon>
                <polygon id="Path" points="13.3056133 14.968815 14.968815 14.968815 14.968815 16.6320166 13.3056133 16.6320166"></polygon>
                <polygon id="Path" points="34.9272349 11.6424116 39.9168399 11.6424116 39.9168399 13.3056133 34.9272349 13.3056133"></polygon>
                <polygon id="Path" points="35.7588358 14.968815 39.9168399 14.968815 39.9168399 16.6320166 35.7588358 16.6320166"></polygon>
                <polygon id="Path" points="9.97921 26.6112266 14.1372142 26.6112266 14.1372142 28.2744283 9.97921 28.2744283"></polygon>
                <polygon id="Path" points="9.97921 29.9376299 15.8004158 29.9376299 15.8004158 31.6008316 9.97921 31.6008316"></polygon>
                <path d="M43.3406965,39.667522 C46.1773973,34.971901 45.0631821,28.8981289 40.7443802,25.51569 C36.4255782,22.133251 30.2612558,22.5068217 26.3826176,26.3862721 C22.5039793,30.2657225 22.1316268,36.4300448 25.5148779,40.7480347 C28.8985349,45.0664306 34.9727131,46.1794277 39.6675221,43.3415085 L45.4627404,49.1359148 C46.2050091,49.8802137 47.3224727,50.1035441 48.2933504,49.7015495 C49.2646342,49.299555 49.8972681,48.3514163 49.8960517,47.3005457 C49.8944257,46.6126884 49.6211506,45.9532549 49.1359148,45.4651767 L43.3406965,39.667522 Z M24.9479974,34.0956341 C24.9382796,30.1057368 27.5155114,26.5698089 31.3165931,25.3577345 C35.1176748,24.1456601 39.2663396,25.5368048 41.5678599,28.795803 C43.8693802,32.0548012 43.7934479,36.4296388 41.3798565,39.6066138 C41.2966151,39.7199032 41.2133738,39.8360349 41.1211993,39.9444517 C40.9920738,40.0999708 40.8532029,40.2461506 40.7143321,40.3915183 C40.6140365,40.4974988 40.5117106,40.6014489 40.4061363,40.7017444 C40.2554898,40.845894 40.1032193,40.9888254 39.9436395,41.1228235 C39.8380652,41.2056588 39.725588,41.2889001 39.6159531,41.3721414 C36.8531542,43.4795674 33.1336895,43.8364897 30.0208712,42.2922622 C26.9080529,40.7480347 24.9415281,37.5706536 24.9479974,34.0956341 L24.9479974,34.0956341 Z M47.3009518,48.2328532 C47.0532581,48.2336603 46.8157159,48.135395 46.6411123,47.9599792 L41.0489215,42.3673824 C41.2828093,42.1700396 41.5077637,41.9637636 41.7241912,41.7481484 L41.7554574,41.7148519 C41.9686363,41.5008608 42.1712578,41.2799668 42.3669763,41.0493275 L47.9603853,46.6419243 C48.2263514,46.9087026 48.3059382,47.309479 48.1617886,47.6574682 C48.017233,48.0058634 47.6777709,48.2328532 47.3009518,48.2328532 L47.3009518,48.2328532 Z" id="Shape"></path>
                <path d="M41.5800416,34.0956341 C41.5800416,29.9619932 38.229275,26.6112266 34.0956341,26.6112266 C29.9623993,26.6112266 26.6112266,29.9619932 26.6112266,34.0956341 C26.6112266,38.2292749 29.9623993,41.5800416 34.0956341,41.5800416 C38.2272446,41.5755749 41.575575,38.2272447 41.5800416,34.0956341 Z M34.0956341,39.9168399 C30.880896,39.9168399 28.2744283,37.3107784 28.2744283,34.0956341 C28.2744283,30.8804898 30.880896,28.2744283 34.0956341,28.2744283 C37.3107783,28.2744283 39.9168399,30.8804898 39.9168399,34.0956341 C39.9131854,37.3091541 37.3091541,39.9131854 34.0956341,39.9168399 Z" id="Shape"></path>
                <path d="M29.93763,34.0956341 L31.6008316,34.0956341 C31.6008316,32.7178892 32.7178891,31.6008316 34.0956341,31.6008316 L34.0956341,29.9376299 C31.8006107,29.9404723 29.9404723,31.8002047 29.93763,34.0956341 Z" id="Path"></path>
            </g>
            <g id="Group-7" transform="translate(150.000000, 50.000000)" fill="#232A30" fill-rule="nonzero">
                <path d="M4.1689573,50 L41.689573,50 C42.1500311,50 42.5233645,49.6285086 42.5233645,49.1703223 L42.5233645,27.598703 L40.8557816,27.598703 L40.8557816,48.3406447 L4.1689573,48.3406447 C2.7875831,48.3406447 1.66758292,47.2261704 1.66758292,45.8516117 C1.66758292,44.4770529 2.7875831,43.3625787 4.1689573,43.3625787 L5.83654022,43.3625787 C6.29699833,43.3625787 6.67033168,42.9910873 6.67033168,42.532901 L6.67033168,17.642571 L20.0109951,17.642571 L20.0109951,15.9832157 L6.67033168,15.9832157 L6.67033168,10.1754721 C6.67033168,9.71728578 6.29699833,9.34579439 5.83654022,9.34579439 L4.1689573,9.34579439 C1.86748119,9.34863023 0.00284987837,11.2040617 -4.26325641e-14,13.4941827 L-4.26325641e-14,45.8516117 C0.00284987837,48.1417327 1.86748119,49.9971642 4.1689573,50 Z M1.66758292,16.8128934 L1.66758292,13.4941827 C1.66758292,12.119624 2.7875831,11.0051497 4.1689573,11.0051497 L5.00274876,11.0051497 L5.00274876,41.7032233 L4.1689573,41.7032233 C3.26676889,41.702008 2.38860086,41.9932864 1.66758292,42.532901 L1.66758292,16.8128934 Z" id="Shape"></path>
                <path d="M19.2107996,20.0934579 L9.24195223,20.0934579 C8.78318079,20.0934579 8.41121495,20.4700734 8.41121495,20.9345794 L8.41121495,27.6635514 C8.41121495,28.1280575 8.78318079,28.5046729 9.24195223,28.5046729 L19.2107996,28.5046729 C19.669571,28.5046729 20.0415369,28.1280575 20.0415369,27.6635514 L20.0415369,25.1401869 L23.364486,25.1401869 L23.364486,23.4579439 L20.0415369,23.4579439 L20.0415369,20.9345794 C20.0415369,20.4700734 19.669571,20.0934579 19.2107996,20.0934579 Z M18.3800623,26.8224299 L10.0726895,26.8224299 L10.0726895,21.7757009 L18.3800623,21.7757009 L18.3800623,26.8224299 Z" id="Shape"></path>
                <path d="M27.5181724,43.4579439 L37.4870197,43.4579439 C37.9457912,43.4579439 38.317757,43.0787131 38.317757,42.6109813 L38.317757,35.8352804 C38.317757,35.3675486 37.9457912,34.9883178 37.4870197,34.9883178 L33.3333333,34.9883178 L33.3333333,29.9065421 L31.6718588,29.9065421 L31.6718588,34.9883178 L27.5181724,34.9883178 C27.0594009,34.9883178 26.6874351,35.3675486 26.6874351,35.8352804 L26.6874351,38.3761682 L20.0415369,38.3761682 L20.0415369,35.8352804 C20.0415369,35.3675486 19.669571,34.9883178 19.2107996,34.9883178 L9.24195223,34.9883178 C8.78318079,34.9883178 8.41121495,35.3675486 8.41121495,35.8352804 L8.41121495,42.6109813 C8.41121495,43.0787131 8.78318079,43.4579439 9.24195223,43.4579439 L19.2107996,43.4579439 C19.669571,43.4579439 20.0415369,43.0787131 20.0415369,42.6109813 L20.0415369,40.0700935 L26.6874351,40.0700935 L26.6874351,42.6109813 C26.6874351,43.0787131 27.0594009,43.4579439 27.5181724,43.4579439 Z M28.3489097,36.682243 L36.6562825,36.682243 L36.6562825,41.7640187 L28.3489097,41.7640187 L28.3489097,36.682243 Z M18.3800623,41.7640187 L10.0726895,41.7640187 L10.0726895,36.682243 L18.3800623,36.682243 L18.3800623,41.7640187 Z" id="Shape"></path>
                <path d="M35.9813084,6.54205607 C31.85196,6.54205607 28.5046729,9.8893432 28.5046729,14.0186916 C28.5046729,18.14804 31.85196,21.4953271 35.9813084,21.4953271 C40.1106568,21.4953271 43.4579439,18.14804 43.4579439,14.0186916 C43.4534819,9.89137134 40.1086287,6.54651807 35.9813084,6.54205607 Z M35.9813084,19.8338525 C32.7695028,19.8338525 30.1661475,17.2304972 30.1661475,14.0186916 C30.1661475,10.806886 32.7695028,8.20353063 35.9813084,8.20353063 C39.193114,8.20353063 41.7964694,10.806886 41.7964694,14.0186916 C41.7928187,17.2288746 39.1914914,19.8302019 35.9813084,19.8338525 Z" id="Shape"></path>
                <path d="M49.1616273,17.6058274 C49.6246154,17.6058274 50,17.2304427 50,16.7674546 L50,11.7372183 C50,11.2742302 49.6246154,10.8988455 49.1616273,10.8988455 L46.1073798,10.8988455 C45.9284887,10.3486634 45.7066146,9.81321833 45.4442138,9.29742261 L47.607281,7.14213336 C47.7648852,6.98493847 47.8537167,6.77125162 47.8537167,6.54855886 C47.8537167,6.3258661 47.7648852,6.11217936 47.607281,5.95498447 L44.0474718,2.39190036 C43.8902769,2.23470547 43.6769994,2.14628334 43.454716,2.14628334 C43.2324326,2.14669268 43.0191552,2.2351148 42.8619603,2.39271903 L40.7025774,4.55578617 C40.1867817,4.29338536 39.6513366,4.07192071 39.1011545,3.89262024 L39.1011545,0.838372732 C39.1011545,0.37538464 38.7257698,-7.46069873e-14 38.2627817,-7.46069873e-14 L33.2325454,-7.46069873e-14 C32.7695573,-7.46069873e-14 32.3941726,0.37538464 32.3941726,0.838372732 L32.3941726,3.89262024 C31.8439905,4.07192071 31.3085454,4.29338536 30.7927497,4.55578617 L28.6366417,2.39271903 C28.4794468,2.2351148 28.2661694,2.14669268 28.043886,2.14628334 C27.8216026,2.14628334 27.6083251,2.23470547 27.4511302,2.39190036 L23.8872275,5.95252825 C23.7296231,6.10972313 23.6407917,6.32340998 23.6407917,6.54610274 C23.6407917,6.7687955 23.7296231,6.98248225 23.8872275,7.13967713 L26.0502946,9.29496638 C25.7878938,9.81158088 25.566429,10.3478447 25.3879473,10.8988455 L22.3336998,10.8988455 C21.8707117,10.8988455 21.4953271,11.2742302 21.4953271,11.7372183 L21.4953271,16.7674546 C21.4953271,17.2304427 21.8707117,17.6058274 22.3336998,17.6058274 L25.3879473,17.6058274 C25.5668384,18.1560095 25.7887125,18.6914546 26.0511133,19.2072503 L23.8880461,21.3625395 C23.7300326,21.5197344 23.641201,21.7338306 23.641201,21.9565234 C23.641201,22.1796255 23.7300326,22.3933123 23.8880461,22.5505072 L27.4478553,26.1045853 C27.7753447,26.4316653 28.3058774,26.4316653 28.6333668,26.1045853 L30.7894748,23.9488867 C31.3064986,24.2112875 31.8431718,24.4327522 32.3941726,24.6120527 L32.3941726,27.6663002 C32.3941726,28.1292883 32.7695573,28.5046729 33.2325454,28.5046729 L38.2627817,28.5046729 C38.7257698,28.5046729 39.1011545,28.1292883 39.1011545,27.6663002 L39.1011545,24.6120527 C39.6517459,24.4327522 40.187191,24.2112875 40.7033961,23.9488867 L42.8595041,26.1045853 C43.1869934,26.431256 43.7167075,26.431256 44.0441969,26.1045853 L47.607281,22.5496884 C47.7652945,22.3924935 47.8541261,22.1788068 47.8541261,21.9557046 C47.8541261,21.7326025 47.7652945,21.5189158 47.607281,21.3617209 L45.4442138,19.2064316 C45.7066146,18.6910452 45.9284887,18.1556001 46.1073798,17.6058274 L49.1616273,17.6058274 Z M44.671339,16.5537679 C44.450693,17.3884563 44.1187006,18.1895771 43.6835491,18.9354341 C43.4915585,19.2649703 43.5460036,19.6825192 43.8161824,19.9514698 L45.828195,21.9569327 L43.4530786,24.3271369 L41.4484344,22.3200365 C41.1794837,22.0506765 40.7623441,21.9966409 40.4332175,22.188222 C39.6877697,22.6233735 38.8862396,22.9553659 38.0515511,23.1751931 C37.6823069,23.2713931 37.4248184,23.6046136 37.424409,23.9857292 L37.424409,26.8279274 L34.0709181,26.8279274 L34.0709181,23.9857292 C34.0709181,23.6050229 33.8142483,23.2722118 33.4462321,23.1751931 C32.6115437,22.9553659 31.8100135,22.6233735 31.0645659,22.188222 C30.7354391,21.9966409 30.3182995,22.0506765 30.0493489,22.3200365 L28.0430673,24.3263181 L25.6679507,21.9569327 L27.6799635,19.9514698 C27.9501422,19.6825192 28.0045872,19.2649703 27.8125966,18.9354341 C27.3774451,18.1895771 27.0454529,17.3884563 26.8248069,16.5537679 C26.7277882,16.1857517 26.3949771,15.9290819 26.0142708,15.9290819 L23.1720726,15.9290819 L23.1720726,12.575591 L26.0142708,12.575591 C26.3945678,12.5751816 26.7269694,12.3189212 26.8239881,11.950905 C27.0446341,11.1162166 27.3766265,10.3150958 27.811778,9.56923876 C28.0037686,9.23970263 27.9493235,8.82215371 27.6791447,8.55320311 L25.6671321,6.54692141 L28.0430673,4.17098619 L30.0493489,6.1829989 C30.3182995,6.45317761 30.7358484,6.50762269 31.0653845,6.31563209 C31.8108322,5.88048059 32.6123624,5.54848824 33.4470509,5.32866104 C33.8146577,5.23123301 34.0705088,4.89883132 34.0709181,4.51894367 L34.0709181,1.67674546 L37.424409,1.67674546 L37.424409,4.51894367 C37.424409,4.89964999 37.6810788,5.23246112 38.049095,5.32947981 C38.8837834,5.54930701 39.6853136,5.88129936 40.4307612,6.31645086 C40.7607068,6.50926014 41.1790744,6.45481506 41.4484344,6.18381757 L43.454716,4.17180496 L45.8306513,6.54774019 L43.8186385,8.55402178 C43.5484598,8.82297239 43.4940148,9.2405213 43.6864147,9.57005744 C44.1211569,10.3159145 44.4531491,11.1170353 44.6737951,11.9517238 C44.7708138,12.3185118 45.1019875,12.5743629 45.4810563,12.575591 L48.3232545,12.575591 L48.3232545,15.9290819 L45.4810563,15.9290819 C45.1007593,15.9294912 44.7683577,16.1857517 44.671339,16.5537679 L44.671339,16.5537679 Z" id="Shape"></path>
                <path d="M35.9813084,10.7476636 C34.174896,10.7476636 32.7102804,12.2122791 32.7102804,14.0186916 C32.7102804,15.825104 34.174896,17.2897196 35.9813084,17.2897196 C37.7877209,17.2897196 39.2523364,15.825104 39.2523364,14.0186916 C39.2523364,12.2122791 37.7877209,10.7476636 35.9813084,10.7476636 Z M35.9813084,15.6542056 C35.0781021,15.6542056 34.3457944,14.9218979 34.3457944,14.0186916 C34.3457944,13.1154853 35.0781021,12.3831776 35.9813084,12.3831776 C36.8845147,12.3831776 37.6168224,13.1154853 37.6168224,14.0186916 C37.6168224,14.9218979 36.8845147,15.6542056 35.9813084,15.6542056 Z" id="Shape"></path>
            </g>
            <g id="Group-8" transform="translate(250.000000, 50.000000)" fill="#232A30" fill-rule="nonzero">
                <path d="M7.89473684,14.7423896 L6.32382,13.8157895 C5.94124176,14.4156092 5.58483049,15.0370987 5.26315789,15.6607552 L6.91979386,16.4473684 C7.21078789,15.8705188 7.54058119,15.2971362 7.89473684,14.7423896 Z" id="Path"></path>
                <path d="M4.88948685,17.1052632 C3.24873953,20.8728989 2.85992011,24.9859708 3.76908453,28.9473684 L5.54578584,28.622182 C4.70703397,24.9669123 5.06573993,21.1722768 6.57894737,17.695681 L4.88948685,17.1052632 Z" id="Path"></path>
                <path d="M42.2695062,1.69516558 C41.9531073,1.55194624 41.5815938,1.62087314 41.3362317,1.86851461 L38.8683211,4.36391515 C29.8001273,-1.83702736 17.8051424,-1.39292365 9.21052632,5.46261787 L10.2507638,6.78667428 C18.464885,0.235731831 29.9777188,-0.0242917696 38.4727204,6.14982293 C38.8046331,6.39374981 39.2626968,6.35825448 39.5537837,6.06562483 L40.9634935,4.63879724 L40.4503151,13.4564846 L31.7279145,13.9748808 L32.898386,12.7915673 C33.0821015,12.6058362 33.1702849,12.3441617 33.1363996,12.0837254 C33.1029225,11.8232892 32.951051,11.5933952 32.7261018,11.4617325 C27.485721,8.41574247 20.9928093,8.62211026 15.9520662,11.9949872 L16.8820745,13.3999398 C21.0634378,10.6020039 26.3895523,10.2231124 30.9175254,12.401532 L28.9905546,14.3459303 C28.7513163,14.5877934 28.6798714,14.9510009 28.8092887,15.2667438 C28.938706,15.5828994 29.2432654,15.7888546 29.58171,15.7888546 C29.5980403,15.78968 29.6143705,15.78968 29.6307008,15.7888546 L41.290507,15.0954585 C41.7134607,15.0706942 42.0510889,14.7297745 42.0764007,14.3017675 L42.7618635,2.51362057 C42.7810515,2.16403344 42.5854966,1.83879764 42.2695062,1.69516558 L42.2695062,1.69516558 Z" id="Path"></path>
                <path d="M39.4736842,45.1712954 L38.4861639,43.805879 C30.26518,49.7987224 19.1301074,49.8057224 10.9013187,43.823585 C10.5673527,43.5802313 10.1064551,43.6160549 9.81356747,43.907997 L8.39513651,45.3298253 L8.91066818,36.5324432 L17.6878511,36.015265 L16.5101386,37.1962102 C16.3252866,37.3815049 16.2369685,37.6421527 16.2710634,37.9015654 C16.3051583,38.1613898 16.4575585,38.3903317 16.6834886,38.5216851 C21.9423222,41.5506363 28.4540414,41.3550474 33.5226828,38.0156246 L32.5860994,36.6160317 C28.3833868,39.384335 23.0432185,39.7516303 18.5024322,37.5849173 L20.4372163,35.6450874 C20.6808101,35.3972041 20.7473568,35.0245559 20.6048154,34.707496 C20.4618632,34.3900244 20.1393992,34.1932002 19.7926991,34.2117297 L8.06117062,34.9030849 C7.63560028,34.9282026 7.29547263,35.2683214 7.27041494,35.694911 L6.58030087,47.4557734 C6.56058333,47.8049511 6.75775878,48.1302463 7.076115,48.2735409 C7.39447111,48.4168355 7.76787209,48.3480705 8.01475226,48.1005992 L10.4983413,45.6114733 C19.2763458,51.617905 30.8731376,51.4445514 39.4687549,45.1787071 L39.4736842,45.1712954 Z" id="Path"></path>
                <path d="M5.22841038,40.1315789 L6.56855033,39.1225494 C0.225194176,31.0018787 0.051686552,19.7871194 6.14056475,11.4828053 C6.38471479,11.1542653 6.3487739,10.7014128 6.05587653,10.4140411 L4.62939601,9.0203694 L13.4555636,9.52770948 L13.9740209,18.150877 L12.7896248,16.9937218 C12.6037238,16.8116928 12.3418099,16.7249162 12.0811354,16.7580124 C11.8204608,16.7915123 11.5903566,16.9416558 11.4585735,17.1636423 C8.41020977,22.3435969 8.61594019,28.7610257 11.9902504,33.7444212 L13.3960753,32.8253971 C10.5964058,28.6916043 10.217994,23.4268913 12.3996458,18.9516429 L14.3454099,20.8530583 C14.5941041,21.0952255 14.9700373,21.1626287 15.2902002,21.0221717 C15.610363,20.8817148 15.8086575,20.5620542 15.7880019,20.2197914 L15.0943844,8.69304015 C15.0691846,8.27449467 14.7279528,7.94070764 14.2999674,7.91568375 L2.50062274,7.23801941 C2.15071567,7.2198569 1.82518231,7.41318691 1.68017949,7.72477537 C1.53476357,8.03999621 1.60540599,8.40970467 1.85699202,8.65227538 L4.35426255,11.0925128 C-1.75816329,19.9538111 -1.40660377,31.6363565 5.22841038,40.1315789 Z" id="Path"></path>
                <path d="M36.0228868,31.8531428 L37.2070549,33.0108283 C37.3929202,33.1924735 37.6547837,33.2792595 37.915408,33.2461597 C38.1760324,33.2126563 38.4060923,33.0628999 38.5378501,32.8404854 C41.4109136,27.9824851 41.4195873,21.9970737 38.561393,17.1310003 L37.0963619,17.9576878 C39.4580895,21.9760835 39.6447808,26.8732385 37.5953068,31.0522893 L35.6499174,29.1466292 C35.4008579,28.9072611 35.0274753,28.8422725 34.7090262,28.9823412 C34.390577,29.1224097 34.1931469,29.4392798 34.2117334,29.7799655 L34.9056303,41.3079779 C34.9304123,41.7265692 35.2715783,42.0603928 35.6998944,42.0854194 L47.4965544,42.7631579 L47.5465316,42.7631579 C47.8885236,42.7627542 48.1966469,42.5613299 48.3271656,42.2525329 C48.4576843,41.9437361 48.3854033,41.5881152 48.1437785,41.3519764 L45.6465759,38.911472 C51.7578247,30.049204 51.406333,18.3645731 44.7725961,9.86842105 L43.4327144,10.8779647 C49.7748492,18.9991204 49.9487365,30.2155104 43.8610305,38.520733 C43.6169274,38.8489053 43.6528614,39.3018074 43.9457024,39.5896142 L45.3632346,40.9850531 L36.5387662,40.4772538 L36.0228868,31.8531428 Z" id="Path"></path>
                <path d="M24.6710526,28.9473684 C27.0326313,28.9473684 28.9473684,27.0326313 28.9473684,24.6710526 C28.9473684,22.3090563 27.0326313,20.3947368 24.6710526,20.3947368 C22.3094739,20.3947368 20.3947368,22.3090563 20.3947368,24.6710526 C20.3976601,27.0313785 22.3103092,28.9444451 24.6710526,28.9473684 Z M24.6710526,22.1052632 C26.0879998,22.1052632 27.2368421,23.2536878 27.2368421,24.6710526 C27.2368421,26.0879998 26.0879998,27.2368421 24.6710526,27.2368421 C23.2541054,27.2368421 22.1052632,26.0879998 22.1052632,24.6710526 C22.1052632,23.2536878 23.2541054,22.1052632 24.6710526,22.1052632 Z" id="Shape"></path>
                <path d="M15.9539474,22.5328947 C15.4997976,22.5328947 15.1315789,22.9011134 15.1315789,23.3552632 L15.1315789,26.6447368 C15.1315789,27.0988865 15.4997976,27.4671053 15.9539474,27.4671053 L17.1593917,27.4671053 C17.3043502,27.9260736 17.4890619,28.3717908 17.7123221,28.7982338 L16.8586329,29.6519229 C16.5373953,29.9731606 16.5373953,30.4935656 16.8586329,30.8148032 L19.1851968,33.141367 C19.5060329,33.4622031 20.0268394,33.4622031 20.3476756,33.141367 L21.2013646,32.2884811 C21.6282092,32.5113396 22.0735249,32.6960513 22.5328947,32.8402067 L22.5328947,34.0460526 C22.5328947,34.5002023 22.9011134,34.8684211 23.3552632,34.8684211 L26.6447368,34.8684211 C27.0988866,34.8684211 27.4671053,34.5002023 27.4671053,34.0460526 L27.4671053,32.8402067 C27.9264751,32.6956498 28.3717908,32.5105366 28.7986354,32.2876779 L29.6523244,33.141367 C29.9731606,33.4622031 30.4939671,33.4622031 30.8148032,33.141367 L33.1413671,30.8148032 C33.4626047,30.4935656 33.4626047,29.9731606 33.1413671,29.6519229 L32.2876779,28.7982338 C32.5109381,28.3717908 32.6956498,27.9260736 32.8406083,27.4671053 L34.0460526,27.4671053 C34.5002024,27.4671053 34.8684211,27.0988865 34.8684211,26.6447368 L34.8684211,23.3552632 C34.8684211,22.9011134 34.5002024,22.5328947 34.0460526,22.5328947 L32.8406083,22.5328947 C32.6956498,22.0735249 32.5105366,21.6278076 32.2868749,21.2013646 L33.1413671,20.3476755 C33.4626047,20.0264378 33.4626047,19.5060328 33.1413671,19.1847951 L30.8148032,16.8582314 C30.4939671,16.5373953 29.9731606,16.5373953 29.6523244,16.8582314 L28.7986354,17.7111174 C28.3717908,17.4882587 27.9264751,17.3039486 27.4671053,17.1593917 L27.4671053,15.9539474 C27.4671053,15.4997976 27.0988866,15.1315789 26.6447368,15.1315789 L23.3552632,15.1315789 C22.9011134,15.1315789 22.5328947,15.4997976 22.5328947,15.9539474 L22.5328947,17.1593917 C22.0735249,17.3039486 21.6282092,17.4890619 21.2013646,17.7119204 L20.3476756,16.8582314 C20.0268394,16.5373953 19.5060329,16.5373953 19.1851968,16.8582314 L16.8586329,19.1847951 C16.5373953,19.5060328 16.5373953,20.0264378 16.8586329,20.3476755 L17.7115189,21.2013646 C17.4886604,21.6282091 17.3039486,22.0735249 17.1593917,22.5328947 L15.9539474,22.5328947 Z M17.7878129,24.1776316 C18.1720934,24.1780331 18.5049759,23.9122089 18.5905056,23.5375655 C18.7543368,22.8167884 19.0402383,22.1289383 19.434959,21.5041311 C19.6401496,21.178878 19.5927671,20.7552458 19.3205181,20.4833984 L18.6037566,19.7662353 L19.7666369,18.603355 L20.4833984,19.3205181 C20.7552458,19.5923654 21.178878,19.6401496 21.5041312,19.434959 C22.1289383,19.0398367 22.8167885,18.7543367 23.5379671,18.5905054 C23.912209,18.5049759 24.1780331,18.1716918 24.1776316,17.7878129 L24.1776316,16.7763158 L25.8223684,16.7763158 L25.8223684,17.7878129 C25.8219669,18.1716918 26.087791,18.5049759 26.4620329,18.5905054 C27.1832115,18.7543367 27.8706601,19.0398367 28.4958688,19.434959 C28.821122,19.6401496 29.2447542,19.5923654 29.5166016,19.3205181 L30.2333631,18.603355 L31.3962434,19.7662353 L30.6790804,20.4833984 C30.4076346,20.7548443 30.360252,21.1780748 30.565041,21.503328 C30.9597617,22.1281353 31.2452617,22.8159854 31.4094944,23.5367624 C31.4942209,23.9114058 31.8271034,24.1772301 32.211384,24.1776316 L33.2236842,24.1776316 L33.2236842,25.8223684 L32.211384,25.8223684 C31.8271034,25.8223684 31.4942209,26.0881925 31.4094944,26.4628359 C31.2452617,27.183613 30.9597617,27.8714632 30.565041,28.496672 C30.360252,28.8215235 30.4076346,29.2447541 30.6790804,29.5162 L31.3962434,30.2333631 L30.2333631,31.3962434 L29.5166016,30.6790804 C29.2447542,30.4072329 28.821122,30.3598504 28.4958688,30.5646394 C27.8706601,30.9597617 27.1832115,31.2452617 26.4620329,31.4094944 C26.087791,31.4946224 25.8219669,31.8279066 25.8223684,32.2121871 L25.8223684,33.2236842 L24.1776316,33.2236842 L24.1776316,32.2121871 C24.1780331,31.8279066 23.912209,31.4946224 23.5379671,31.4094944 C22.8167885,31.2452617 22.1289383,30.9597617 21.5041312,30.5646394 C21.178878,30.3598504 20.7552458,30.4072329 20.4833984,30.6790804 L19.7666369,31.3962434 L18.6037566,30.2333631 L19.3205181,29.5162 C19.5927671,29.2447541 19.6401496,28.8207204 19.434959,28.4958688 C19.0402383,27.8706601 18.7543368,27.1828099 18.5905056,26.4620329 C18.5049759,26.0873895 18.1720934,25.8219669 17.7878129,25.8223684 L16.7763158,25.8223684 L16.7763158,24.1776316 L17.7878129,24.1776316 Z" id="Shape"></path>
            </g>
            <path d="M399.38918,96.443532 L383.409195,80.4786961 C385.990253,77.2669789 387.535565,73.1889535 387.535565,68.7499908 C387.535565,58.3952107 379.132388,50 368.767783,50 C358.403177,50 350,58.3952107 350,68.7499908 C350,79.1047709 358.403177,87.4999817 368.767783,87.4999817 C373.186716,87.4999817 377.248377,85.973127 380.454931,83.4199056 L396.439998,99.3898196 C397.254344,100.203393 398.574736,100.203393 399.389082,99.3898196 C400.203623,98.5761482 400.203623,97.2571058 399.38918,96.443532 Z M354.170749,68.7499908 C354.170749,60.6963815 360.706727,54.1666972 368.76788,54.1666972 C376.829034,54.1666972 383.36511,60.6963815 383.36511,68.7499908 C383.36511,72.7884654 381.721365,76.4436394 379.066115,79.0845561 C379.065919,79.0847514 379.065626,79.0849467 379.06543,79.0852397 C379.065333,79.0853374 379.065137,79.0855327 379.065039,79.085728 C376.425331,81.710629 372.786239,83.3333822 368.767978,83.3333822 C360.706727,83.3333822 354.170749,76.8036002 354.170749,68.7499908 Z" id="Shape" fill="#009A62" fill-rule="nonzero"></path>
            <g id="Shape-2" transform="translate(450.000000, 49.000000)" fill="#232A30" fill-rule="nonzero">
                <path d="M26.35,0 L4.65,0 C2.0828125,0 0,2.09960938 0,4.6875 L0,45.3125 C0,47.9003906 2.0828125,50 4.65,50 L26.35,50 C28.9171875,50 31,47.9003906 31,45.3125 L31,4.6875 C31,2.09960938 28.9171875,0 26.35,0 Z M15.5,46.875 C13.7853125,46.875 12.4,45.4785156 12.4,43.75 C12.4,42.0214844 13.7853125,40.625 15.5,40.625 C17.2146875,40.625 18.6,42.0214844 18.6,43.75 C18.6,45.4785156 17.2146875,46.875 15.5,46.875 Z M26.35,36.328125 C26.35,36.9726562 25.826875,37.5 25.1875,37.5 L5.8125,37.5 C5.173125,37.5 4.65,36.9726562 4.65,36.328125 L4.65,5.859375 C4.65,5.21484375 5.173125,4.6875 5.8125,4.6875 L25.1875,4.6875 C25.826875,4.6875 26.35,5.21484375 26.35,5.859375 L26.35,36.328125 Z" id="Shape"></path>
            </g>
            <g id="Shape-3" transform="translate(533.000000, 57.000000)" fill="#232A30" fill-rule="nonzero">
                <path d="M44.40625,0 L4.59375,0 C2.05666016,0 0,2.07065104 0,4.625 L0,32.375 C0,34.929349 2.05666016,37 4.59375,37 L44.40625,37 C46.9433398,37 49,34.929349 49,32.375 L49,4.625 C49,2.07065104 46.9433398,0 44.40625,0 Z M44.40625,4.625 L44.40625,8.55673177 C42.2603945,10.3160625 38.8393906,13.05175 31.5258535,18.817487 C29.9141172,20.0938906 26.7214609,23.160362 24.5,23.1246146 C22.2789219,23.1607474 19.0852129,20.0934089 17.4741465,18.817487 C10.1617578,13.0526172 6.73989258,10.3163516 4.59375,8.55673177 L4.59375,4.625 L44.40625,4.625 Z M4.59375,32.375 L4.59375,14.491474 C6.78669141,16.2500339 9.89656445,18.7177604 14.6366445,22.4547604 C16.7284277,24.1125339 20.3916563,27.7721615 24.5,27.7499036 C28.5881504,27.7721615 32.2049629,24.165625 34.3624941,22.4555312 C39.1024785,18.7186276 42.2132129,16.2502266 44.40625,14.491474 L44.40625,32.375 L4.59375,32.375 Z" id="Shape"></path>
            </g>
        </g>
    </g>
</svg>