<?xml version="1.0" standalone="no"?>
<!DOCTYPE svg PUBLIC "-//W3C//DTD SVG 20010904//EN"
 "http://www.w3.org/TR/2001/REC-SVG-20010904/DTD/svg10.dtd">
<svg version="1.0" xmlns="http://www.w3.org/2000/svg"
 width="300.000000pt" height="300.000000pt" viewBox="0 0 300.000000 300.000000"
 preserveAspectRatio="xMidYMid meet">
<metadata>
Created by potrace 1.11, written by Peter Selinger 2001-2013
</metadata>
<g transform="translate(0.000000,300.000000) scale(0.100000,-0.100000)"
fill="#000000" stroke="none">
<path d="M0 1500 l0 -1500 1500 0 1500 0 0 1500 0 1500 -1500 0 -1500 0 0
-1500z m2264 705 c83 -15 177 -56 243 -105 l43 -32 -76 -89 c-42 -49 -81 -89
-85 -89 -5 0 -26 11 -47 25 -86 57 -226 76 -303 43 -94 -41 -159 -141 -185
-286 -28 -160 -9 -379 41 -487 47 -99 149 -165 255 -165 67 0 165 38 246 96
21 14 25 11 95 -77 l72 -93 -41 -36 c-57 -51 -166 -106 -243 -125 -80 -19
-224 -19 -310 -1 -156 33 -307 148 -380 288 l-34 67 -30 -57 c-43 -84 -135
-172 -225 -215 -131 -63 -172 -69 -497 -74 l-293 -5 0 698 0 697 273 -6 c307
-7 406 -22 524 -78 80 -38 187 -139 224 -211 l24 -47 33 62 c123 239 388 358
676 302z"/>
<path d="M840 1484 l0 -456 108 4 c91 3 114 8 157 30 104 54 146 138 165 330
18 184 -16 372 -81 451 -54 65 -148 97 -286 97 l-63 0 0 -456z"/>
</g>
</svg>
