<?xml version="1.0" standalone="no"?>
<!DOCTYPE svg PUBLIC "-//W3C//DTD SVG 20010904//EN"
 "http://www.w3.org/TR/2001/REC-SVG-20010904/DTD/svg10.dtd">
<svg version="1.0" xmlns="http://www.w3.org/2000/svg"
 width="300.000000pt" height="300.000000pt" viewBox="0 0 300.000000 300.000000"
 preserveAspectRatio="xMidYMid meet">
<metadata>
Created by potrace 1.11, written by Peter Selinger 2001-2013
</metadata>
<g transform="translate(0.000000,300.000000) scale(0.100000,-0.100000)"
fill="#000000" stroke="none">
<path d="M0 1500 l0 -1500 1500 0 1500 0 0 1500 0 1500 -1500 0 -1500 0 0
-1500z m2273 720 c79 -12 255 -64 283 -84 16 -12 14 -22 -31 -134 l-48 -121
-36 16 c-209 92 -358 99 -474 22 -56 -37 -109 -117 -138 -209 -30 -92 -37
-278 -15 -385 44 -216 148 -307 351 -307 86 0 225 25 318 58 l37 13 0 -129 0
-128 -62 -21 c-181 -59 -414 -66 -562 -17 -43 15 -99 39 -125 54 -52 31 -157
133 -166 163 -6 18 -13 13 -71 -41 -45 -41 -93 -74 -157 -104 -149 -71 -198
-79 -534 -84 l-293 -4 0 716 0 716 258 0 c292 0 409 -13 526 -58 85 -33 190
-104 237 -161 l32 -38 51 61 c141 165 370 242 619 206z"/>
<path d="M850 1495 l0 -465 83 0 c226 0 366 67 432 205 37 79 48 139 48 265 1
331 -131 460 -470 460 l-93 0 0 -465z"/>
</g>
</svg>
