<?xml version="1.0" standalone="no"?>
<!DOCTYPE svg PUBLIC "-//W3C//DTD SVG 20010904//EN"
 "http://www.w3.org/TR/2001/REC-SVG-20010904/DTD/svg10.dtd">
<svg version="1.0" xmlns="http://www.w3.org/2000/svg"
 width="300.000000pt" height="300.000000pt" viewBox="0 0 300.000000 300.000000"
 preserveAspectRatio="xMidYMid meet">
<metadata>
Created by potrace 1.11, written by Peter Selinger 2001-2013
</metadata>
<g transform="translate(0.000000,300.000000) scale(0.100000,-0.100000)"
fill="#000000" stroke="none">
<path d="M0 1500 l0 -1500 1500 0 1500 0 0 1500 0 1500 -1500 0 -1500 0 0
-1500z m1597 759 c283 -31 497 -176 608 -411 67 -142 93 -312 75 -479 -38
-341 -228 -573 -549 -667 -84 -25 -95 -25 -473 -29 l-388 -5 0 801 0 801 315
0 c174 0 359 -5 412 -11z"/>
<path d="M1310 1465 l0 -415 88 0 c171 0 261 29 332 106 72 78 110 187 110
314 0 189 -86 337 -226 390 -44 16 -79 20 -179 20 l-125 0 0 -415z"/>
</g>
</svg>
