<?xml version="1.0" standalone="no"?>
<!DOCTYPE svg PUBLIC "-//W3C//DTD SVG 20010904//EN"
 "http://www.w3.org/TR/2001/REC-SVG-20010904/DTD/svg10.dtd">
<svg version="1.0" xmlns="http://www.w3.org/2000/svg"
 width="300.000000pt" height="300.000000pt" viewBox="0 0 300.000000 300.000000"
 preserveAspectRatio="xMidYMid meet">
<metadata>
Created by potrace 1.11, written by Peter Selinger 2001-2013
</metadata>
<g transform="translate(0.000000,300.000000) scale(0.100000,-0.100000)"
fill="#000000" stroke="none">
<path d="M0 1500 l0 -1500 1500 0 1500 0 0 1500 0 1500 -1500 0 -1500 0 0
-1500z m1652 771 c292 -67 481 -243 554 -516 15 -57 19 -105 19 -255 0 -163
-3 -195 -23 -265 -39 -136 -87 -220 -177 -310 -89 -89 -159 -135 -263 -171
-149 -51 -187 -56 -534 -61 l-328 -5 0 799 c0 440 3 803 8 808 4 4 153 5 332
2 276 -5 338 -9 412 -26z"/>
<path d="M1240 1495 l0 -528 138 6 c150 6 213 20 292 63 135 73 210 239 210
463 0 212 -60 362 -176 442 -77 53 -150 70 -316 76 l-148 6 0 -528z"/>
</g>
</svg>
