<?xml version="1.0" encoding="UTF-8"?>
<svg width="800px" height="550px" viewBox="0 0 800 550" version="1.1" xmlns="http://www.w3.org/2000/svg" xmlns:xlink="http://www.w3.org/1999/xlink">
    <!-- Generator: Sketch 63.1 (92452) - https://sketch.com -->
    <title>Slice</title>
    <desc>Created with Sketch.</desc>
    <g id="Assets" stroke="none" stroke-width="1" fill="none" fill-rule="evenodd">
        <g id="archimedes-link">
            <rect id="Rectangle" fill="#009A62" x="0" y="0" width="800" height="550"></rect>
            <g id="Group-5" transform="translate(267.000000, 72.000000)" fill="#FBFBFB" fill-rule="nonzero">
                <path d="M78.3755701,382 L56.0698982,382 C25.1524438,382 0,404.65581 0,432.5 L0,469.269206 C0,476.853324 6.82510689,483 15.2463115,483 L81,483 C79.3046427,478.701976 78.3755701,474.082135 78.3755701,469.269206 L78.3755701,382 Z" id="Path"></path>
                <path d="M178.40797,302 L156.381599,302 C125.845841,302 101,325.495032 101,354.370634 L101,468.760587 C101,476.625637 107.740846,483 116.058085,483 L181,483 C179.329494,478.542767 178.40797,473.751797 178.40797,468.760587 L178.40797,302 Z" id="Path"></path>
                <path d="M480.09362,142.137726 L374.394034,5.72648573 C371.59938,2.12624336 367.189609,0 362.498446,0 C357.807282,0 353.393657,2.12624336 350.602857,5.72648573 L244.907126,142.137726 C241.580524,146.430748 241.06785,152.153549 243.581111,156.925621 C246.098228,161.697693 251.209553,164.71202 256.802715,164.71202 L294.848552,164.71202 L294.848552,468.849609 C294.848552,476.665489 301.474773,483 309.65058,483 L415.346311,483 C423.522119,483 430.148339,476.665489 430.148339,468.849609 L430.148339,164.71202 L468.198032,164.71202 C473.787339,164.71202 478.902519,161.697693 481.41578,156.925621 C483.932895,152.153549 483.420221,146.430748 480.09362,142.137726 Z" id="Path"></path>
                <path d="M279.411892,221 L257.381599,221 C226.845841,221 202,244.924268 202,274.332045 L202,468.498155 C202,476.508158 208.744767,483 217.058085,483 L282,483 C280.329494,478.460621 279.411892,473.581353 279.411892,468.498155 L279.411892,221 Z" id="Path"></path>
            </g>
        </g>
    </g>
</svg>