<?xml version="1.0" encoding="UTF-8"?>
<svg width="800px" height="550px" viewBox="0 0 800 550" version="1.1" xmlns="http://www.w3.org/2000/svg" xmlns:xlink="http://www.w3.org/1999/xlink">
    <!-- Generator: Sketch 63.1 (92452) - https://sketch.com -->
    <title>autocloud-link 2</title>
    <desc>Created with Sketch.</desc>
    <g id="Assets" stroke="none" stroke-width="1" fill="none" fill-rule="evenodd">
        <g id="autocloud-link-2">
            <g id="autocloud-link">
                <g id="Group-8">
                    <rect id="Rectangle" fill="#6C5CE7" x="0" y="0" width="800" height="550"></rect>
                    <g id="Group-7" transform="translate(144.000000, 201.000000)" fill-rule="nonzero">
                        <g id="Group-6">
                            <ellipse id="XMLID_1215_" fill="#F5F5FE" transform="translate(256.450825, 83.233595) scale(1, -1) translate(-256.450825, -83.233595) " cx="256.450825" cy="83.2335952" rx="86.7370336" ry="83.2335952"></ellipse>
                            <path d="M320.375517,83.2335952 C320.375517,117.152488 291.546734,144.576274 256.450825,144.576274 C221.354915,144.576274 192.526132,116.911929 192.526132,83.2335952 C192.526132,49.3147024 221.354915,21.8909167 256.450825,21.8909167 C291.546734,21.8909167 320.375517,49.5552619 320.375517,83.2335952 Z" id="Path" fill="#A9A9E9" transform="translate(256.450825, 83.233595) scale(1, -1) translate(-256.450825, -83.233595) "></path>
                            <path d="M73.450725,83.2335952 C73.450725,95.2615714 83.4781277,105.124512 96.2630662,105.124512 C108.79732,105.124512 119.075407,95.502131 119.075407,83.2335952 C119.075407,71.205619 108.79732,61.3426786 96.2630662,61.3426786 C83.7288128,61.5832381 73.450725,71.205619 73.450725,83.2335952 Z" id="Path" fill="#F5F5FE" transform="translate(96.263066, 83.233595) scale(1, -1) translate(-96.263066, -83.233595) "></path>
                            <path d="M3.44132582e-13,83.2335952 C3.44132582e-13,95.2615714 10.0274027,105.124512 22.8123412,105.124512 C35.3465946,105.124512 45.6246824,95.502131 45.6246824,83.2335952 C45.6246824,71.205619 35.5972797,61.3426786 22.8123412,61.3426786 C10.2780878,61.5832381 3.44132582e-13,71.205619 3.44132582e-13,83.2335952 Z" id="Path" fill="#F5F5FE" transform="translate(22.812341, 83.233595) scale(1, -1) translate(-22.812341, -83.233595) "></path>
                            <path d="M489.838623,61.102119 C477.30437,61.102119 467.026282,70.9650595 467.026282,82.9930357 C467.026282,95.0210119 477.30437,104.883952 489.838623,104.883952 C502.372877,104.883952 512.650965,95.2615714 512.650965,82.9930357 C512.650965,70.7245 502.372877,61.102119 489.838623,61.102119 Z" id="Path" fill="#F5F5FE" transform="translate(489.838623, 82.993036) scale(1, -1) translate(-489.838623, -82.993036) "></path>
                            <path d="M393.826242,83.2335952 C393.826242,95.2615714 403.853645,105.124512 416.638583,105.124512 C429.172837,105.124512 439.450925,95.502131 439.450925,83.2335952 C439.450925,71.205619 429.423522,61.3426786 416.638583,61.3426786 C403.853645,61.5832381 393.826242,71.205619 393.826242,83.2335952 Z" id="Path" fill="#F5F5FE" transform="translate(416.638583, 83.233595) scale(1, -1) translate(-416.638583, -83.233595) "></path>
                        </g>
                    </g>
                </g>
            </g>
        </g>
    </g>
</svg>