<?xml version="1.0" encoding="UTF-8"?>
<svg width="800px" height="550px" viewBox="0 0 800 550" version="1.1" xmlns="http://www.w3.org/2000/svg" xmlns:xlink="http://www.w3.org/1999/xlink">
    <!-- Generator: Sketch 63.1 (92452) - https://sketch.com -->
    <title>Slice</title>
    <desc>Created with Sketch.</desc>
    <defs>
        <linearGradient x1="0%" y1="26.3671875%" x2="100%" y2="74.6844453%" id="linearGradient-1">
            <stop stop-color="#2998FF" stop-opacity="0.8" offset="0%"></stop>
            <stop stop-color="#5643FF" stop-opacity="0.8" offset="100%"></stop>
        </linearGradient>
    </defs>
    <g id="Assets" stroke="none" stroke-width="1" fill="none" fill-rule="evenodd">
        <rect id="Rectangle" fill="url(#linearGradient-1)" x="0" y="0" width="800" height="550"></rect>
        <g id="Shape-4" transform="translate(-138.000000, 111.000000)" fill="#FFFFFF" fill-rule="nonzero">
            <path d="M345.583871,55.5145161 C332.606452,52.8709677 319.028226,51.5491935 305.329839,51.1887097 L305.329839,29.3193548 C399.175806,31.9629032 480.885484,82.1903226 527.147581,157.41129 L508.162097,168.345968 C500.832258,156.690323 492.901613,145.755645 483.889516,135.782258 L462.260484,154.407258 C431.018548,118.839516 388.481452,93.4854839 339.816129,84.2330645 L345.583871,55.5145161 L345.583871,55.5145161 Z M64.166129,377.787097 L91.8032258,368.534677 C84.1129032,346.545161 79.7870968,322.633065 79.7870968,298 C79.7870968,273.366935 83.7524194,249.454839 91.4427419,227.465323 L64.166129,218.212903 C68.4919355,205.235484 74.1395161,192.618548 80.5080645,180.962903 L61.5225806,170.028226 C40.8548387,207.879032 28.958871,251.737903 28.958871,298 C28.958871,344.262097 40.975,388.120968 61.5225806,426.091935 L80.5080645,415.157258 C74.1395161,403.141129 68.8524194,390.764516 64.166129,377.787097 Z M256.06371,511.887097 C207.518548,502.274194 164.981452,476.920161 133.619355,441.352419 L111.990323,460.337903 C102.978226,450.004032 94.6870968,439.069355 87.7177419,427.41371 L68.4919355,438.708871 C114.754032,513.569355 196.824194,564.037097 290.670161,566.800806 L290.670161,544.81129 C277.091935,544.450806 263.393548,542.768548 250.416129,540.485484 L256.06371,511.887097 L256.06371,511.887097 Z M112.110484,135.662097 L133.739516,154.287097 C164.981452,118.719355 207.518548,93.3653226 256.183871,84.1129032 L250.53629,55.5145161 C263.51371,52.8709677 277.091935,51.5491935 290.790323,51.1887097 L290.790323,29.3193548 C196.944355,31.9629032 115.234677,82.1903226 68.9725806,157.41129 L87.9580645,168.345968 C95.1677419,156.690323 103.098387,145.635484 112.110484,135.662097 Z M483.889516,460.337903 L462.260484,441.352419 C431.018548,476.920161 388.481452,502.274194 339.816129,511.887097 L345.46371,540.485484 C332.48629,542.768548 318.908065,544.450806 305.209677,544.81129 L305.209677,566.800806 C399.055645,564.157258 481.125806,513.569355 527.387903,438.708871 L508.041935,427.41371 C501.192742,439.069355 492.901613,450.004032 483.889516,460.337903 L483.889516,460.337903 Z M596,298 C596,462.620968 462.620968,596 298,596 C133.379032,596 0,462.620968 0,298 C0,133.379032 133.379032,0 298,0 C462.620968,0 596,133.379032 596,298 Z M581.340323,298 C581.340323,141.670161 454.329839,14.6596774 298,14.6596774 C141.670161,14.6596774 14.6596774,141.670161 14.6596774,298 C14.6596774,454.329839 141.670161,581.340323 298,581.340323 C454.329839,581.340323 581.340323,454.329839 581.340323,298 Z M534.477419,169.908065 L515.491935,180.842742 C521.860484,192.498387 527.508065,205.115323 531.833871,218.092742 L504.557258,227.345161 C512.247581,249.334677 516.212903,273.246774 516.212903,297.879839 C516.212903,322.512903 511.887097,346.425 504.196774,368.414516 L531.833871,377.666935 C527.147581,390.644355 521.860484,402.900806 515.491935,414.916935 L534.477419,425.851613 C555.145161,388.120968 567.041129,344.262097 567.041129,298 C567.041129,251.737903 555.145161,207.879032 534.477419,169.908065 L534.477419,169.908065 Z M314.582258,383.434677 C334.168548,379.469355 351.11129,369.495968 363.487903,355.196774 L425.010484,409.029032 C439.309677,392.687097 450.604839,373.821774 457.574194,352.793548 L380.430645,326.237903 C383.434677,317.225806 385.116935,307.973387 385.116935,298 C385.116935,288.026613 383.434677,278.654032 380.430645,269.762097 L457.934677,243.206452 C450.604839,222.298387 439.309677,203.312903 425.010484,186.970968 L363.487903,240.803226 C351.231452,226.504032 334.168548,216.170161 314.582258,212.204839 L330.56371,132.417742 C320.229839,130.134677 309.295161,129.053226 298,129.053226 C286.704839,129.053226 275.770161,130.014516 265.43629,132.417742 L281.417742,212.204839 C261.831452,216.170161 244.88871,226.504032 232.512097,240.803226 L170.989516,186.970968 C156.690323,203.312903 145.395161,222.178226 138.065323,243.206452 L215.569355,269.762097 C212.565323,278.774194 210.883065,288.026613 210.883065,298 C210.883065,307.973387 212.565323,317.345968 215.569355,326.237903 L138.425806,352.793548 C145.395161,373.701613 156.690323,392.687097 170.989516,409.029032 L232.512097,355.196774 C244.768548,369.495968 261.831452,379.469355 281.417742,383.434677 L265.43629,463.582258 C275.770161,465.625 286.704839,466.946774 298,466.946774 C309.295161,466.946774 320.229839,465.625 330.56371,463.582258 L314.582258,383.434677 L314.582258,383.434677 Z" id="Shape"></path>
        </g>
    </g>
</svg>