<?xml version="1.0" encoding="UTF-8"?>
<svg width="800px" height="550px" viewBox="0 0 800 550" version="1.1" xmlns="http://www.w3.org/2000/svg" xmlns:xlink="http://www.w3.org/1999/xlink">
    <!-- Generator: Sketch 63.1 (92452) - https://sketch.com -->
    <title>Group 2</title>
    <desc>Created with Sketch.</desc>
    <defs>
        <rect id="path-1" x="0" y="0" width="800" height="550"></rect>
    </defs>
    <g id="Assets" stroke="none" stroke-width="1" fill="none" fill-rule="evenodd">
        <g id="Group-2">
            <mask id="mask-2" fill="white">
                <use xlink:href="#path-1"></use>
            </mask>
            <use id="Rectangle" fill="#004445" xlink:href="#path-1"></use>
            <g id="Group" mask="url(#mask-2)" fill="#6FB98F" fill-rule="nonzero">
                <g transform="translate(130.000000, 157.000000)">
                    <path d="M270.5,275 C121.177092,274.830433 0.169141212,153.518037 0,3.81944444 L0,0 L541,0 L541,3.81944444 C540.830859,153.518037 419.822908,274.830433 270.5,275 L270.5,275 Z M7.64577775,7.63888889 C9.72884069,151.684914 126.800374,267.361811 270.5,267.361811 C414.199626,267.361811 531.271159,151.684914 533.354222,7.63888889 L7.64577775,7.63888889 Z" id="Shape"></path>
                    <path d="M274.5,223 C374.187397,223 455,142.411255 455,43 L94,43 C94,142.411255 174.812603,223 274.5,223 Z" id="Path"></path>
                </g>
            </g>
        </g>
    </g>
</svg>