<?xml version="1.0" encoding="UTF-8"?>
<svg width="800px" height="550px" viewBox="0 0 800 550" version="1.1" xmlns="http://www.w3.org/2000/svg" xmlns:xlink="http://www.w3.org/1999/xlink">
    <!-- Generator: Sketch 63.1 (92452) - https://sketch.com -->
    <title>greenspire-link</title>
    <desc>Created with Sketch.</desc>
    <g id="Assets" stroke="none" stroke-width="1" fill="none" fill-rule="evenodd">
        <g id="greenspire-link">
            <g id="Group-6">
                <rect id="Rectangle" fill="#E9F3ED" x="0" y="0" width="800" height="550"></rect>
                <g id="tree" transform="translate(351.000000, 114.000000)" fill-rule="nonzero">
                    <path d="M193.694695,347.250442 C194.400546,345.920565 194.961438,344.514357 195.366664,343.058108 C200.330682,351.671773 210.255422,355.831029 219.649745,353.234038 C229.044068,350.637047 235.611693,341.918214 235.718765,331.902581 C242.672672,338.906484 253.30244,340.289793 261.730645,335.288338 C270.158026,330.286883 274.32477,320.121978 271.927183,310.415067 C280.39904,315.325772 291.009865,313.827116 297.884704,306.747729 C304.759543,299.668341 306.214897,288.741811 301.446079,280.017889 C310.872524,282.487659 320.743728,278.196942 325.600674,269.517971 C330.45762,260.839848 329.114279,249.892962 322.312743,242.732154 C332.038989,242.621896 340.505905,235.858863 343.027859,226.185029 C345.549814,216.511195 341.510733,206.291162 333.145948,201.179449 C342.516385,198.4951 349,189.707567 349,179.691935 C349,169.676302 342.516385,160.888769 333.145948,158.20442 C341.510733,153.092707 345.549814,142.872674 343.027859,133.19884 C340.505905,123.525006 332.038989,116.761973 322.312743,116.651715 C329.114279,109.490907 330.45762,98.5448695 325.600674,89.8658985 C320.743728,81.1877755 310.872524,76.8970578 301.446079,79.3659804 C306.214897,70.6420581 304.759543,59.7146797 297.884704,52.6361404 C291.009865,45.5567529 280.39904,44.0580974 271.927183,48.9688022 C274.325593,39.2618909 270.15885,29.0969863 261.730645,24.095531 C253.303263,19.0940756 242.672672,20.4773847 235.718765,27.4812881 C235.611693,17.4656554 229.044068,8.74682193 219.649745,6.14983087 C210.255422,3.55283982 200.330682,7.71124842 195.366664,16.3257612 C192.759875,6.67652305 184.226246,0 174.5,0 C164.773754,0 156.240125,6.67652305 153.633336,16.3257612 C148.669318,7.71209655 138.744578,3.55283982 129.350255,6.14983087 C119.955932,8.74682193 113.388307,17.4656554 113.281235,27.4812881 C106.327328,20.4773847 95.6975603,19.0940756 87.2693553,24.095531 C78.841974,29.0969863 74.6752302,39.2618909 77.0728169,48.9688022 C68.6009596,44.0580974 57.9893117,45.5567529 51.1152964,52.6361404 C44.2412811,59.7155278 42.7851034,70.6420581 47.5539206,79.3659804 C38.1274762,76.8962096 28.2562716,81.1869274 23.399326,89.8658985 C18.5423804,98.5440214 19.8857208,109.490907 26.6872566,116.651715 C16.9610109,116.761973 8.49409535,123.525006 5.97214054,133.19884 C3.45018573,142.872674 7.48844322,153.092707 15.8540523,158.20442 C6.48361472,160.888769 0,169.676302 0,179.691935 C0,189.707567 6.48361472,198.4951 15.8540523,201.179449 C7.48926685,206.291162 3.45018573,216.511195 5.97214054,226.185029 C8.49409535,235.858863 16.9610109,242.621896 26.6872566,242.732154 C19.8857208,249.892962 18.5423804,260.839 23.399326,269.517971 C28.2562716,278.196094 38.1274762,282.486811 47.5539206,280.017889 C42.7851034,288.741811 44.2404575,299.668341 51.1152964,306.747729 C57.9901353,313.827116 68.6009596,315.325772 77.0728169,310.415067 C74.6744066,320.121978 78.8411503,330.286883 87.2693553,335.288338 C95.6967366,340.289793 106.327328,338.906484 113.281235,331.902581 C113.388307,341.918214 119.955932,350.637047 129.350255,353.234038 C138.744578,355.831029 148.669318,351.672621 153.633336,343.058108 C154.039386,344.515205 154.600278,345.920565 155.305305,347.250442 L193.694695,347.250442 Z" id="Path" fill="#4FBA6F"></path>
                    <g id="Group" transform="translate(81.000000, 121.000000)" fill="#7F5B53">
                        <path d="M185.697409,55.1979339 C182.879861,52.2550689 178.312278,52.2550689 175.49473,55.1979339 L94.0016348,140.106336 L12.4652174,55.182562 C10.6506087,53.2260606 7.96711304,52.4438017 5.44546087,53.1372452 C2.9238087,53.8306887 0.956347826,55.8922314 0.299982609,58.5285124 C-0.356382609,61.1647934 0.398886957,63.9667493 2.27725217,65.8566391 L85.4084,152.438871 C85.9397043,152.946143 86.5429391,153.363747 87.1976696,153.675455 C88.0992522,156.023939 90.0691652,157.74303 92.4412348,158.252865 C94.8133043,158.7627 97.2728348,157.994959 98.9877217,156.208402 L185.682696,65.8566391 C188.50433,62.9171901 188.51087,58.1459229 185.697409,55.1979339 Z" id="Path"></path>
                        <path d="M81.6851826,80.9270799 C82.5001217,81.7452066 83.4891652,82.3498347 84.5713913,82.6914325 C82.554887,85.6317355 82.8597739,89.6625895 85.2931478,92.2356749 C88.1106957,95.1785399 92.6782783,95.1785399 95.4958261,92.2356749 L170.61,13.7800551 C173.43327,10.8303581 173.43327,6.04798898 170.61,3.09743802 C167.78673,0.147741047 163.208522,0.147741047 160.385252,3.09743802 L93.496487,72.9815152 C93.1450087,71.9652617 92.5891826,71.0395317 91.8657913,70.2675207 L26.925687,2.41936639 C24.0942435,-0.437245179 19.593687,-0.397107438 16.8104696,2.5115978 C14.0272522,5.41944904 13.9880174,10.1215427 16.7221913,13.0797796 L81.6851826,80.9270799 Z" id="Path"></path>
                        <path d="M101.44153,68.0582362 L86.5633739,68.0582362 C82.6644174,68.0582362 79.4684174,71.2914601 79.3474435,75.3633058 L72.3554783,309.297163 L115.649426,309.297163 L108.650104,75.3633058 C108.52913,71.294876 105.338035,68.0607989 101.44153,68.0582362 Z" id="Path"></path>
                    </g>
                    <g id="Group" transform="translate(65.000000, 420.000000)" fill="#7F5B53">
                        <path d="M153.80812,0.294736842 L7.78766917,0.294736842 C3.75571429,0.294736842 0.486315789,3.62273684 0.486315789,7.72884211 C0.486315789,11.8349474 3.75488722,15.1629474 7.78766917,15.1629474 L153.80812,15.1629474 C157.840075,15.1629474 161.109474,11.8349474 161.109474,7.72884211 C161.109474,3.62273684 157.840075,0.294736842 153.80812,0.294736842 Z" id="Path"></path>
                        <path d="M212.216466,0.294736842 L183.012707,0.294736842 C178.980752,0.294736842 175.711353,3.62273684 175.711353,7.72884211 C175.711353,11.8349474 178.979925,15.1629474 183.012707,15.1629474 L212.216466,15.1629474 C216.248421,15.1629474 219.51782,11.8349474 219.51782,7.72884211 C219.51782,3.62273684 216.248421,0.294736842 212.216466,0.294736842 Z" id="Path"></path>
                    </g>
                    <g id="Group" transform="translate(161.000000, 29.000000)" fill="#7ED09E">
                        <ellipse id="Oval" cx="72.579181" cy="45.28885" rx="21.6886638" ry="22.51055"></ellipse>
                        <ellipse id="Oval" cx="14.7430172" cy="15.2745" rx="14.4588362" ry="15.00675"></ellipse>
                    </g>
                </g>
            </g>
        </g>
    </g>
</svg>