<?xml version="1.0" encoding="UTF-8"?>
<svg width="567px" height="161px" viewBox="0 0 567 161" version="1.1" xmlns="http://www.w3.org/2000/svg" xmlns:xlink="http://www.w3.org/1999/xlink">
    <!-- Generator: Sketch 63.1 (92452) - https://sketch.com -->
    <title>Group 33</title>
    <desc>Created with Sketch.</desc>
    <defs>
        <linearGradient x1="9.68346522%" y1="0%" x2="90.3165348%" y2="102.224942%" id="linearGradient-1">
            <stop stop-color="#2998FF" stop-opacity="0.8" offset="0%"></stop>
            <stop stop-color="#5643FF" stop-opacity="0.8" offset="100%"></stop>
        </linearGradient>
        <linearGradient x1="0%" y1="0%" x2="100%" y2="102.224942%" id="linearGradient-2">
            <stop stop-color="#2998FF" stop-opacity="0.8" offset="0%"></stop>
            <stop stop-color="#5643FF" stop-opacity="0.8" offset="100%"></stop>
        </linearGradient>
        <linearGradient x1="0%" y1="3.57024793%" x2="100%" y2="98.4958224%" id="linearGradient-3">
            <stop stop-color="#2998FF" stop-opacity="0.8" offset="0%"></stop>
            <stop stop-color="#5643FF" stop-opacity="0.8" offset="100%"></stop>
        </linearGradient>
        <linearGradient x1="11.0726644%" y1="0%" x2="88.9273356%" y2="102.224942%" id="linearGradient-4">
            <stop stop-color="#2998FF" stop-opacity="0.8" offset="0%"></stop>
            <stop stop-color="#5643FF" stop-opacity="0.8" offset="100%"></stop>
        </linearGradient>
    </defs>
    <g id="Assets" stroke="none" stroke-width="1" fill="none" fill-rule="evenodd">
        <g id="Group-33">
            <rect id="Rectangle" stroke-opacity="0.1" stroke="#111111" fill="#FFFFFF" x="0.5" y="0.5" width="566" height="160"></rect>
            <g id="Shape-2" transform="translate(56.000000, 49.000000)" fill="#4E4E4E" fill-rule="nonzero">
                <path d="M37.1096774,5.96129032 C35.716129,5.67741935 34.2580645,5.53548387 32.7870968,5.49677419 L32.7870968,3.1483871 C42.8645161,3.43225806 51.6387097,8.82580645 56.6064516,16.9032258 L54.5677419,18.0774194 C53.7806452,16.8258065 52.9290323,15.6516129 51.9612903,14.5806452 L49.6387097,16.5806452 C46.283871,12.7612903 41.716129,10.0387097 36.4903226,9.04516129 L37.1096774,5.96129032 L37.1096774,5.96129032 Z M6.89032258,40.5677419 L9.85806452,39.5741935 C9.03225806,37.2129032 8.56774194,34.6451613 8.56774194,32 C8.56774194,29.3548387 8.99354839,26.7870968 9.81935484,24.4258065 L6.89032258,23.4322581 C7.35483871,22.0387097 7.96129032,20.683871 8.64516129,19.4322581 L6.60645161,18.2580645 C4.38709677,22.3225806 3.10967742,27.0322581 3.10967742,32 C3.10967742,36.9677419 4.4,41.6774194 6.60645161,45.7548387 L8.64516129,44.5806452 C7.96129032,43.2903226 7.39354839,41.9612903 6.89032258,40.5677419 Z M27.4967742,54.9677419 C22.283871,53.9354839 17.716129,51.2129032 14.3483871,47.3935484 L12.0258065,49.4322581 C11.0580645,48.3225806 10.1677419,47.1483871 9.41935484,45.8967742 L7.35483871,47.1096774 C12.3225806,55.1483871 21.1354839,60.5677419 31.2129032,60.8645161 L31.2129032,58.5032258 C29.7548387,58.4645161 28.283871,58.283871 26.8903226,58.0387097 L27.4967742,54.9677419 L27.4967742,54.9677419 Z M12.0387097,14.5677419 L14.3612903,16.5677419 C17.716129,12.7483871 22.283871,10.0258065 27.5096774,9.03225806 L26.9032258,5.96129032 C28.2967742,5.67741935 29.7548387,5.53548387 31.2258065,5.49677419 L31.2258065,3.1483871 C21.1483871,3.43225806 12.3741935,8.82580645 7.40645161,16.9032258 L9.44516129,18.0774194 C10.2193548,16.8258065 11.0709677,15.6387097 12.0387097,14.5677419 Z M51.9612903,49.4322581 L49.6387097,47.3935484 C46.283871,51.2129032 41.716129,53.9354839 36.4903226,54.9677419 L37.0967742,58.0387097 C35.7032258,58.283871 34.2451613,58.4645161 32.7741935,58.5032258 L32.7741935,60.8645161 C42.8516129,60.5806452 51.6645161,55.1483871 56.6322581,47.1096774 L54.5548387,45.8967742 C53.8193548,47.1483871 52.9290323,48.3225806 51.9612903,49.4322581 L51.9612903,49.4322581 Z M64,32 C64,49.6774194 49.6774194,64 32,64 C14.3225806,64 0,49.6774194 0,32 C0,14.3225806 14.3225806,0 32,0 C49.6774194,0 64,14.3225806 64,32 Z M62.4258065,32 C62.4258065,15.2129032 48.7870968,1.57419355 32,1.57419355 C15.2129032,1.57419355 1.57419355,15.2129032 1.57419355,32 C1.57419355,48.7870968 15.2129032,62.4258065 32,62.4258065 C48.7870968,62.4258065 62.4258065,48.7870968 62.4258065,32 Z M57.3935484,18.2451613 L55.3548387,19.4193548 C56.0387097,20.6709677 56.6451613,22.0258065 57.1096774,23.4193548 L54.1806452,24.4129032 C55.0064516,26.7741935 55.4322581,29.3419355 55.4322581,31.9870968 C55.4322581,34.6322581 54.9677419,37.2 54.1419355,39.5612903 L57.1096774,40.5548387 C56.6064516,41.9483871 56.0387097,43.2645161 55.3548387,44.5548387 L57.3935484,45.7290323 C59.6129032,41.6774194 60.8903226,36.9677419 60.8903226,32 C60.8903226,27.0322581 59.6129032,22.3225806 57.3935484,18.2451613 L57.3935484,18.2451613 Z M33.7806452,41.1741935 C35.883871,40.7483871 37.7032258,39.6774194 39.0322581,38.1419355 L45.6387097,43.9225806 C47.1741935,42.1677419 48.3870968,40.1419355 49.1354839,37.883871 L40.8516129,35.0322581 C41.1741935,34.0645161 41.3548387,33.0709677 41.3548387,32 C41.3548387,30.9290323 41.1741935,29.9225806 40.8516129,28.9677419 L49.1741935,26.116129 C48.3870968,23.8709677 47.1741935,21.8322581 45.6387097,20.0774194 L39.0322581,25.8580645 C37.716129,24.3225806 35.883871,23.2129032 33.7806452,22.7870968 L35.4967742,14.2193548 C34.3870968,13.9741935 33.2129032,13.8580645 32,13.8580645 C30.7870968,13.8580645 29.6129032,13.9612903 28.5032258,14.2193548 L30.2193548,22.7870968 C28.116129,23.2129032 26.2967742,24.3225806 24.9677419,25.8580645 L18.3612903,20.0774194 C16.8258065,21.8322581 15.6129032,23.8580645 14.8258065,26.116129 L23.1483871,28.9677419 C22.8258065,29.9354839 22.6451613,30.9290323 22.6451613,32 C22.6451613,33.0709677 22.8258065,34.0774194 23.1483871,35.0322581 L14.8645161,37.883871 C15.6129032,40.1290323 16.8258065,42.1677419 18.3612903,43.9225806 L24.9677419,38.1419355 C26.283871,39.6774194 28.116129,40.7483871 30.2193548,41.1741935 L28.5032258,49.7806452 C29.6129032,50 30.7870968,50.1419355 32,50.1419355 C33.2129032,50.1419355 34.3870968,50 35.4967742,49.7806452 L33.7806452,41.1741935 L33.7806452,41.1741935 Z" id="Shape"></path>
            </g>
            <g id="Path-2" transform="translate(468.000000, 57.000000)" fill="url(#linearGradient-1)" fill-rule="nonzero">
                <path d="M24.6165359,49 C32.209391,49 39.1440422,45.5618652 43.7382955,39.9281094 C44.4179427,39.0947266 43.6768503,37.8771914 42.6265128,38.0762539 C30.6833581,40.3400156 19.7156336,31.226207 19.7156336,19.2271406 C19.7156336,12.3152695 23.4333075,5.95933789 29.4755131,2.53708984 C30.4069028,2.00957422 30.1726611,0.604173828 29.1143424,0.409609375 C27.6306946,0.137327396 26.1251959,0 24.6165359,0 C11.0284965,0 0,10.9590605 0,24.5 C0,38.0237129 11.011188,49 24.6165359,49 Z" id="Path"></path>
            </g>
            <g id="Shape-3" transform="translate(370.000000, 57.000000)" fill="url(#linearGradient-2)" fill-rule="nonzero">
                <path d="M47.3550191,1.79003906 C47.2435082,1.27148437 46.7308138,0.758789062 46.2106129,0.647460937 C43.1921262,0 40.8287824,0 38.4757014,0 C28.7976786,0 22.9939778,5.1752925 18.6611612,12 L8.8910365,12 C7.35844614,12.0014644 5.55760703,13.1132812 4.87041389,14.4829106 L0.235839382,23.7465825 C0.0926148155,24.0624994 0.0125006409,24.4033583 0,24.75 C0,25.9926678 1.00787775,26.9998526 2.25054569,27 L11.9827672,27 L9.87577622,29.1064453 C8.81028775,30.17157 8.65739462,32.130615 9.87577622,33.3486328 L14.648046,38.1210937 C15.6939426,39.1699219 17.6626889,39.3544922 18.8927893,38.1210937 L20.9997803,36.0146484 L20.9997803,45.75 C21.000229,46.9926675 22.0076575,48 23.250325,48 C23.5970388,47.987166 23.9379533,47.9070679 24.2541063,47.7641606 L33.5098884,43.1337891 C34.881346,42.4497075 35.994991,40.6494141 35.994991,39.1157231 L35.994991,29.3247075 C42.8010096,24.9829106 47.998266,19.1616206 47.998266,9.5346675 C48.007057,7.171875 48.007057,4.8090825 47.3550191,1.79003906 Z M36.003782,15.7500001 C33.9328322,15.7494993 32.2543547,14.0703455 32.2546885,11.9993958 C32.2550222,9.92844601 33.9340408,8.24983328 36.0049906,8.25000012 C38.0759405,8.25016697 39.7546885,9.92905021 39.7546885,12 C39.7534873,14.070924 38.0747062,15.7492992 36.003782,15.7500001 L36.003782,15.7500001 Z" id="Shape"></path>
            </g>
            <g id="Path-3" transform="translate(170.000000, 55.000000)" fill="url(#linearGradient-3)" fill-rule="nonzero">
                <path d="M24.5495379,1.84366246 L17.8364658,15.5474365 L2.81686625,17.7520467 C0.123413086,18.1453574 -0.95602425,21.4884986 0.99724331,23.4033009 L11.8635792,34.0640919 L9.29349026,49.1237529 C8.83087426,51.8458772 11.6785328,53.8848829 14.0635753,52.6117981 L27.5,45.501154 L40.9364247,52.6117981 C43.3214672,53.8745326 46.1691257,51.8458772 45.7065097,49.1237529 L43.1364208,34.0640919 L54.0027567,23.4033009 C55.9560243,21.4884986 54.8765869,18.1453574 52.1831338,17.7520467 L37.1635342,15.5474365 L30.4504621,1.84366246 C29.2476604,-0.599004215 25.7626199,-0.630055062 24.5495379,1.84366246 Z" id="Path"></path>
            </g>
            <g id="Shape-4" transform="translate(275.000000, 56.000000)" fill="url(#linearGradient-4)" fill-rule="nonzero">
                <path d="M6.42857143,22.3125 L7.78459821,22.3125 C10.265625,27.9404297 15.9107143,31.875 22.5,31.875 C29.0892857,31.875 34.734375,27.9404297 37.2154018,22.3125 L38.5714286,22.3125 C39.4553571,22.3125 40.1785714,21.5953125 40.1785714,20.71875 L40.1785714,11.15625 C40.1785714,10.2796875 39.4553571,9.5625 38.5714286,9.5625 L37.2154018,9.5625 C34.734375,3.93457031 29.0892857,0 22.5,0 C15.9107143,0 10.265625,3.93457031 7.78459821,9.5625 L6.42857143,9.5625 C5.54464286,9.5625 4.82142857,10.2796875 4.82142857,11.15625 L4.82142857,20.71875 C4.82142857,21.5953125 5.54464286,22.3125 6.42857143,22.3125 Z M10.4464286,13.546875 C10.4464286,11.3455078 12.6060268,9.5625 15.2678571,9.5625 L29.7321429,9.5625 C32.3939732,9.5625 34.5535714,11.3455078 34.5535714,13.546875 L34.5535714,15.9375 C34.5535714,21.2167969 30.234375,25.5 24.9107143,25.5 L20.0892857,25.5 C14.765625,25.5 10.4464286,21.2167969 10.4464286,15.9375 L10.4464286,13.546875 Z M17.6785714,20.71875 L18.8839286,17.1328125 L22.5,15.9375 L18.8839286,14.7421875 L17.6785714,11.15625 L16.4732143,14.7421875 L12.8571429,15.9375 L16.4732143,17.1328125 L17.6785714,20.71875 Z M32.90625,32.0144531 C29.9029018,33.9369141 26.3370536,35.0625 22.5,35.0625 C18.6629464,35.0625 15.0970982,33.9369141 12.09375,32.0144531 C5.31361607,32.7216797 0,38.3496094 0,45.2625 L0,46.21875 C0,48.8583984 2.15959821,51 4.82142857,51 L12.8571429,51 L12.8571429,44.625 C12.8571429,42.8619141 14.2935268,41.4375 16.0714286,41.4375 L28.9285714,41.4375 C30.7064732,41.4375 32.1428571,42.8619141 32.1428571,44.625 L32.1428571,51 L40.1785714,51 C42.8404018,51 45,48.8583984 45,46.21875 L45,45.2625 C45,38.3496094 39.6863839,32.7216797 32.90625,32.0144531 Z M27.3214286,44.625 C26.4375,44.625 25.7142857,45.3421875 25.7142857,46.21875 C25.7142857,47.0953125 26.4375,47.8125 27.3214286,47.8125 C28.2053571,47.8125 28.9285714,47.0953125 28.9285714,46.21875 C28.9285714,45.3421875 28.2053571,44.625 27.3214286,44.625 Z M17.6785714,44.625 C16.7946429,44.625 16.0714286,45.3421875 16.0714286,46.21875 L16.0714286,51 L19.2857143,51 L19.2857143,46.21875 C19.2857143,45.3421875 18.5625,44.625 17.6785714,44.625 Z" id="Shape"></path>
            </g>
        </g>
    </g>
</svg>