<?xml version="1.0" encoding="UTF-8"?>
<svg width="750px" height="161px" viewBox="0 0 750 161" version="1.1" xmlns="http://www.w3.org/2000/svg" xmlns:xlink="http://www.w3.org/1999/xlink">
    <!-- Generator: Sketch 63.1 (92452) - https://sketch.com -->
    <title>Group 55</title>
    <desc>Created with Sketch.</desc>
    <g id="Assets" stroke="none" stroke-width="1" fill="none" fill-rule="evenodd">
        <g id="Group-55">
            <rect id="Rectangle" stroke-opacity="0.1" stroke="#111111" fill="#FFFFFF" x="0.5" y="0.5" width="749" height="160"></rect>
            <g id="Group-53" transform="translate(50.000000, 50.000000)">
                <g id="leaves" transform="translate(0.000000, 6.000000)" fill-rule="nonzero">
                    <path d="M32.5822421,23.1163743 L32.590873,23.1163743 C33.6928571,23.0064327 34.8723214,22.9218324 36.1464286,22.854191 C47.0282738,22.2621832 49.412996,11.2751462 49.869246,4.7962963 C49.9856151,3.24532164 49.997123,1.68840156 49.9036706,0.135867446 C49.9036706,0.135867446 36.1463294,-0.70994152 29.2762897,1.81900585 C25.9411706,2.95867446 23.0256944,5.04590643 20.8996032,7.81578947 L32.5822421,23.1163743 Z" id="Path" fill="#24AE5F"></path>
                    <path d="M32.2808532,31.2023392 C32.1850198,31.8030214 32.0585317,32.3987329 31.9020833,32.987037 C31.5790675,32.6450292 31.1973214,32.3615984 30.7743056,32.1497076 C28.9405754,31.0924951 24.3777778,29.3500975 13.8488095,28.7749513 C-1.63035714,27.9375244 0.091468254,6.05653021 0.091468254,6.05653021 C0.091468254,6.05653021 13.8488095,5.21072125 20.7188492,7.73966862 C24.2585317,8.93654971 27.3167659,11.2122807 29.4485119,14.2354776 C29.7786706,14.7083821 30.0804563,15.1998051 30.3524802,15.7072125 C33.4775794,21.4163743 32.8404762,28.0812865 32.2808532,31.2023392 Z" id="Path" fill="#4FBA6F"></path>
                    <path d="M45.4872024,5.582846 C45.2805556,5.85350877 40.5197421,11.9770955 30.352381,15.707115 C30.0803571,15.1997076 29.7785714,14.7083821 29.4484127,14.2353801 C39.3747024,10.6830409 44.0580357,4.63547758 44.1097222,4.56783626 C44.294246,4.32612086 44.5960317,4.1994152 44.9013889,4.23557505 C45.206746,4.27173489 45.4693452,4.46520468 45.5900794,4.74307992 C45.7110119,5.02105263 45.6718254,5.3411306 45.4872024,5.582846 Z" id="Path" fill="#71C285"></path>
                    <path d="M21.8070437,21.1829435 C15.5012897,19.3580897 9.94017857,15.6295322 5.91210317,10.5258285 C5.6469246,10.1402534 5.11438492,10.0375244 4.72053571,10.2961014 C4.32668651,10.5546784 4.21934524,11.077193 4.48045635,11.4655945 C4.69831349,11.7861598 9.94722222,19.367154 21.3008929,22.7994152 C25.7840278,24.1219298 29.3100198,27.5388889 30.7175595,31.9248538 C30.9354167,32.5867446 31.0438492,33.278655 31.0386905,33.974269 L31.0240079,49.0575049 C31.0240079,49.5246589 31.4094246,49.9033138 31.8849206,49.9033138 C32.3604167,49.9033138 32.7458333,49.5246589 32.7458333,49.0575049 L32.7605722,33.9750487 C32.765873,33.0983431 32.6277778,32.2265107 32.3514881,31.3927875 C30.7381944,26.5057505 26.8041667,22.6965887 21.8070437,21.1829435 Z" id="Path" fill="#527F72"></path>
                </g>
                <g id="leaf" transform="translate(100.000000, 0.000000)" fill-rule="nonzero">
                    <path d="M32.0675418,55.8508594 C29.1990453,55.8508594 25.0568019,53.9419922 25.0568019,53.9419922 L24.9739857,53.9419922 C24.9843675,53.9419922 20.8317422,55.8508594 17.9632458,55.8508594 C6.76885442,55.8508594 -7.37684964,36.5654297 4.79093079,25.9586719 C16.4513126,15.7830469 24.3940334,1.16648438 25.0153938,0 C25.6367542,1.16648438 33.5794749,15.7850391 45.2501193,25.9586719 C57.4076372,36.5654297 43.272315,55.8508594 32.0675418,55.8508594 Z" id="Path" fill="#4FBA6F"></path>
                    <g id="Group" transform="translate(4.176611, 9.023438)" fill="#4C8056">
                        <path d="M20.7973747,7.16636719 C20.2254177,7.16636719 19.7618138,7.62164062 19.7618138,8.18332031 L19.7618138,49.8782813 C19.7618138,50.4399609 20.2254177,50.8952344 20.7973747,50.8952344 C21.3693317,50.8952344 21.8329356,50.4399609 21.8329356,49.8782813 L21.8329356,8.18332031 C21.8329356,7.62164063 21.3693317,7.16636719 20.7973747,7.16636719 Z" id="Path"></path>
                        <path d="M20.7973747,0.0476953125 C20.2254177,0.0476953125 19.7618138,0.50296875 19.7618138,1.06464844 L19.7618138,4.11550781 C19.7618138,4.6771875 20.2254177,5.13246094 20.7973747,5.13246094 C21.3693317,5.13246094 21.8329356,4.6771875 21.8329356,4.11550781 L21.8329356,1.06464844 C21.8329356,0.503085938 21.3693317,0.0476953125 20.7973747,0.0476953125 Z" id="Path"></path>
                        <path d="M16.1798329,37.7439844 L1.68198091,28.5915234 C1.20119332,28.291875 0.564319809,28.4296875 0.256205251,28.8999609 C-0.0519093079,29.3702344 0.0844868735,29.9966016 0.561575179,30.3019922 L15.0594272,39.4545703 C15.5402148,39.7542187 16.1772076,39.6164062 16.4852029,39.1461328 C16.7931981,38.6757422 16.6568019,38.0494922 16.1798329,37.7439844 Z" id="Path"></path>
                        <path d="M16.1756563,29.6054297 L6.85560859,23.7813281 C6.54343675,23.5810547 6.14570406,23.5610156 5.81443914,23.7289453 C5.48317422,23.896875 5.26921241,24.2267578 5.25453461,24.5926172 C5.2398568,24.9584766 5.42661098,25.3039453 5.74343675,25.4969531 L15.0634845,31.3219922 C15.5461814,31.6236328 16.1865155,31.4838281 16.4935561,31.0098047 C16.800716,30.5357812 16.6583532,29.9069531 16.1756563,29.6054297 Z" id="Path"></path>
                        <path d="M16.1756563,21.4698047 L9.66610979,17.4019922 C9.18341289,17.1003516 8.54307876,17.2401563 8.23603819,17.7141797 C7.92899761,18.1882031 8.07124105,18.8170312 8.55393795,19.1185547 L15.0634845,23.1863672 C15.5461814,23.4880078 16.1865155,23.3482031 16.4935561,22.8741797 C16.800716,22.4001563 16.6583532,21.7714453 16.1756563,21.4698047 Z" id="Path"></path>
                        <path d="M16.1756563,13.3341797 L13.0689737,11.3928516 C12.7566826,11.1977344 12.3621718,11.1810938 12.0340095,11.3490234 C11.7058473,11.5170703 11.4937947,11.8442578 11.4779236,12.2073047 C11.4620525,12.5704688 11.6445107,12.9142969 11.9568019,13.1094141 L15.0634845,15.0507422 C15.5461814,15.3523828 16.1865155,15.2125781 16.4935561,14.7385547 C16.800716,14.2645313 16.6583532,13.6358203 16.1756563,13.3341797 Z" id="Path"></path>
                        <path d="M41.3439141,28.8976172 C41.0344869,28.4252344 40.3937947,28.2887109 39.9127685,28.5925781 L25.4149165,37.7451562 C25.1013126,37.940625 24.9182578,38.2860937 24.9353222,38.6505469 C24.9523866,39.015 25.1669451,39.3425391 25.4976134,39.5088281 C25.8282816,39.6751172 26.2242243,39.6548437 26.5354415,39.455625 L41.0332936,30.3030469 C41.5142005,29.9991797 41.653222,29.3698828 41.3439141,28.8976172 Z" id="Path"></path>
                        <path d="M25.975179,31.4806657 C26.1718377,31.4810156 26.3644391,31.4259375 26.5301909,31.3219922 L35.8502387,25.4969531 C36.1670644,25.3039453 36.3538186,24.9585938 36.3391408,24.5926172 C36.324463,24.2267578 36.1106205,23.896875 35.7792363,23.7289453 C35.447852,23.5610156 35.0501193,23.5810547 34.7380668,23.7813281 L25.4180191,29.6054297 C25.0291169,29.848125 24.8502387,30.3140625 24.9793556,30.7485938 C25.1083532,31.1830078 25.5143198,31.4813672 25.975179,31.4806657 Z" id="Path"></path>
                        <path d="M25.975179,23.3450407 C26.1718377,23.3453906 26.3644391,23.2903125 26.5301909,23.1863672 L33.0397375,19.1185547 C33.5224344,18.8169141 33.6647971,18.1882031 33.3576372,17.7141797 C33.0504773,17.2401562 32.4102625,17.1003516 31.9275656,17.4019922 L25.4180191,21.4698047 C25.0291169,21.7125 24.8502387,22.1784375 24.9793556,22.6129688 C25.1083532,23.0473828 25.5143198,23.3457422 25.975179,23.3450407 Z" id="Path"></path>
                        <path d="M25.975179,15.2094157 C26.1718377,15.2097656 26.3644391,15.1546875 26.5301909,15.0507422 L29.6368735,13.1094141 C29.9491647,12.9142969 30.1316229,12.5704687 30.1157518,12.2073047 C30.0998807,11.8441406 29.8878282,11.5169531 29.5596659,11.3490234 C29.2315036,11.1809766 28.8369928,11.1977344 28.5247017,11.3928516 L25.4180191,13.3341797 C25.0291169,13.576875 24.8502387,14.0428125 24.9793556,14.4773437 C25.1083532,14.9117578 25.5143198,15.2102344 25.975179,15.2094157 Z" id="Path"></path>
                    </g>
                </g>
                <g id="fish" transform="translate(300.000000, 6.000000)" fill-rule="nonzero">
                    <path d="M36.6451267,21.2100198 L33.401462,21.2100198 C32.5032164,24.7401786 30.8231969,27.5930556 28.7272904,29.1676587 C28.4290448,29.4030754 28.3262183,29.8147817 28.4777778,30.1665675 C29.3494152,32.2446429 29.9910331,34.4150794 30.3907407,36.6376984 C30.4573099,36.9694444 30.3232943,37.309623 30.0500975,37.5025794 C29.7768031,37.6956349 29.4168616,37.7043651 29.1348928,37.5249008 C27.8675439,36.787996 26.427193,36.4157738 24.9680312,36.4481151 C23.5076023,36.4154762 22.0660819,36.787996 20.7978558,37.5257937 C20.5158869,37.7053571 20.155848,37.6965278 19.8826511,37.5034722 C19.6094542,37.3104167 19.4754386,36.9702381 19.5420078,36.6385913 C19.9412281,34.4155754 20.582846,32.2448413 21.4549708,30.1666667 C21.6065302,29.814881 21.5037037,29.4031746 21.2054581,29.1677579 C19.1095517,27.5931548 17.4295322,24.7402778 16.5312865,21.210119 L13.2876218,21.210119 C12.9994152,21.1993056 12.7373294,21.0373016 12.5950292,20.7820437 C12.452729,20.5267857 12.4503899,20.2146825 12.5889864,19.9572421 L15.874269,13.5572421 L15.874269,13.5488095 C16.2934698,6.67470238 19.2377193,1.07053571 23.3047758,0.0461309524 L24.9682261,2.58581349 L26.6316764,0.0461309524 C30.282846,0.968849206 33.0192008,5.58263889 33.8508772,11.4831349 C33.925731,12.0418651 33.9923002,12.6090278 34.0338207,13.1931548 L34.0587719,13.5487103 L34.0587719,13.5656746 L37.3440546,19.9572421 C37.4826511,20.2146825 37.4804094,20.5267857 37.3380117,20.7820437 C37.1954191,21.0372024 36.9333333,21.1992063 36.6451267,21.2100198 Z" id="Path" fill="#67B9CC"></path>
                    <g id="Group" transform="translate(19.103314, 5.952381)" fill="#41767F">
                        <path d="M1.70614035,3.40575498 C1.41803119,3.40555556 1.15048733,3.25367063 0.999025341,3.00416667 C0.847563353,2.7546627 0.833820663,2.44315476 0.962573099,2.18075397 L1.79424951,0.487599206 C1.92709552,0.216865079 2.1917154,0.0388888889 2.48840156,0.0206349206 C2.78508772,0.00238095238 3.06890838,0.146626984 3.23274854,0.399007937 C3.39668616,0.651388889 3.41578947,0.973710317 3.28294347,1.24434524 L2.45126706,2.9375 C2.31023392,3.22490079 2.02163743,3.40625 1.70614035,3.40575498 Z" id="Path"></path>
                        <path d="M14.9303119,7.2406746 C13.2979532,7.65069444 11.638499,7.93928571 9.96500975,8.10416667 C8.88382066,8.20575397 7.81920078,8.25654762 6.78791423,8.25654762 C4.71432749,8.28015873 2.6462963,8.03551587 0.633235867,7.52847222 C0.187719298,7.40694444 -0.076705653,6.9406746 0.0426900585,6.48720238 C0.16208577,6.03373016 0.620175439,5.76458333 1.06569201,5.88611111 C3.92826511,6.57043651 6.88518519,6.74801587 9.80692008,6.4110119 C11.4747563,6.25694444 13.127193,5.96240079 14.747271,5.53055556 C14.8221248,6.08938492 14.888694,6.65654762 14.9303119,7.2406746 Z" id="Path"></path>
                    </g>
                    <path d="M29.4708577,22.1319444 C29.2695906,22.0389881 29.0403509,22.0313492 28.8335283,22.1108135 C28.6268031,22.1902778 28.4595517,22.3500992 28.3688109,22.5552579 C27.8692982,23.8074405 27.0685185,24.9116071 26.0400585,25.7662698 C25.7178363,26.0048611 25.4246589,26.2816468 25.1667641,26.5907738 C24.9647173,26.8200397 24.9008772,27.1428571 25.0000975,27.4337302 C25.0993177,27.7246032 25.3459064,27.9377976 25.6440546,27.9902778 C25.9422027,28.0427579 26.2448343,27.9262897 26.434308,27.6862103 C26.6064327,27.4798611 26.8018519,27.2949405 27.0164717,27.135119 C28.2777778,26.1088294 29.2634503,24.774504 29.8816764,23.2561508 C29.9740741,23.0516865 29.9827485,22.8181548 29.905653,22.6071429 C29.8285575,22.396131 29.6720273,22.2251984 29.4708577,22.1319444 Z" id="Path" fill="#9FC9D3"></path>
                    <path d="M1.14278752,45.7763889 L6.36013645,43.7632937 C7.98869396,43.1339286 9.78752437,43.1339286 11.4160819,43.7632937 L13.8105263,44.6869048 C15.8197856,45.4633929 18.0390838,45.4633929 20.0483431,44.6869048 L22.4420078,43.7632937 C24.0708577,43.1334325 25.8699805,43.1334325 27.4988304,43.7632937 L29.8924951,44.6869048 C31.9019493,45.4625992 34.1208577,45.4625992 36.1303119,44.6869048 L38.5247563,43.7632937 C40.1533138,43.1339286 41.9521442,43.1339286 43.5807018,43.7632937 L48.7980507,45.7763889 C49.0775828,45.8911706 49.3961988,45.8429563 49.6308967,45.650496 C49.8655945,45.4580357 49.9796296,45.1513889 49.9290448,44.8490079 C49.87846,44.546627 49.6709552,44.2957341 49.3869396,44.193254 L44.1654971,42.1792659 C42.1560429,41.4035714 39.9371345,41.4035714 37.9276803,42.1792659 L35.5332359,43.1036706 C33.9046784,43.7330357 32.105848,43.7330357 30.4772904,43.1036706 L28.0861598,42.1792659 C26.0767057,41.403373 23.8577973,41.403373 21.8483431,42.1792659 L19.4546784,43.1036706 C17.8261209,43.7330357 16.0272904,43.7330357 14.3987329,43.1036706 L12.0059454,42.1792659 C9.99649123,41.4035714 7.77758285,41.4035714 5.76812865,42.1792659 L0.553996101,44.193254 C0.269883041,44.2957341 0.0624756335,44.5465278 0.0118908382,44.8490079 C-0.038791423,45.1513889 0.0753411306,45.4580357 0.310038986,45.650496 C0.544736842,45.8429563 0.863352827,45.8910714 1.14278752,45.7763889 Z" id="Path" fill="#67B9CC"></path>
                    <path d="M49.0875244,48.2999008 C47.9925926,48.2544643 46.920078,47.9698413 45.9427875,47.4651786 C45.6101365,47.3094246 45.2865497,47.1265873 44.9638402,46.9436508 C44.4290448,46.621131 43.8681287,46.3458333 43.2871345,46.1208333 C43.2688109,46.1124008 43.2488304,46.103869 43.2297271,46.097123 C43.131384,46.060119 43.0307992,46.0295635 42.928655,46.0056548 L42.8770955,45.990377 C42.8291423,45.9734127 42.779922,45.9603175 42.729922,45.9513889 C41.1028265,45.5621032 39.3932749,45.7639881 37.8968811,46.5219246 L35.4848928,47.7071429 C33.9317739,48.4965278 32.1042885,48.4965278 30.5511696,47.7071429 L28.1616959,46.5219246 C26.1498051,45.4972222 23.7810916,45.4972222 21.7692008,46.5219246 L19.3639376,47.7071429 C17.8098441,48.4960317 15.9818713,48.4960317 14.4277778,47.7071429 L12.0291423,46.5219246 C10.5294347,45.7803571 8.82660819,45.5800595 7.20019493,45.953869 C6.42192982,46.1755952 5.67768031,46.5060516 4.98869396,46.9359127 C4.66179337,47.1196429 4.33499025,47.3050595 3.99561404,47.4625 C3.01725146,47.9670635 1.94415205,48.2524802 0.848440546,48.2997024 C0.389083821,48.2997024 0.0167641326,48.6786706 0.0167641326,49.1462302 C0.0167641326,49.6137897 0.389181287,49.9927579 0.848440546,49.9927579 C2.18274854,49.9478175 3.49181287,49.6099206 4.68596491,49.0022817 C5.06442495,48.8270833 5.42953216,48.6213294 5.79463938,48.4155754 C6.35321637,48.0627976 6.95536062,47.7873016 7.58528265,47.596131 C8.83986355,47.3109127 10.1523392,47.4676587 11.3079922,48.0405754 L13.7033138,49.2257937 C15.7152047,50.2483135 18.0823587,50.2483135 20.094152,49.2257937 L22.5002924,48.0405754 C24.0535088,47.2490079 25.8824561,47.2490079 27.4356725,48.0405754 L29.8309942,49.2257937 C31.8423977,50.2478175 34.2087719,50.2478175 36.2201754,49.2257937 L38.6321637,48.0405754 C39.7973684,47.4532738 41.1280702,47.3007937 42.3923002,47.6097222 L42.6500975,47.6833333 C43.1756335,47.8804563 43.6818713,48.1272817 44.1621832,48.4207341 C44.5223197,48.6248016 44.8832359,48.8270833 45.2550682,49.0014881 C46.447271,49.6098214 47.7547758,49.9480159 49.0876218,49.9928571 C49.5469786,49.9928571 49.9192982,49.6137897 49.9192982,49.1463294 C49.9192982,48.678869 49.5468811,48.2999008 49.0875244,48.2999008 Z" id="Path" fill="#3B97D3"></path>
                </g>
                <g id="bird" transform="translate(400.000000, 6.000000)" fill-rule="nonzero">
                    <path d="M26.6548733,17.2414063 C26.365692,15.1612305 25.7924951,13.1306641 24.9512671,11.2069336 C24.1101365,13.1306641 23.5368421,15.1612305 23.2476608,17.2414063 L26.6548733,17.2414063 Z" id="Path" fill="#F0C419"></path>
                    <path d="M28.1863548,37.0948242 C27.7410331,38.1799805 27.518616,39.344043 27.5324561,40.5172852 C27.5324561,43.9655273 30.1136452,50 30.1136452,50 C28.4729045,49.3505859 26.7135478,49.0567383 24.9512671,49.1378906 C23.1889864,49.0567383 21.4296296,49.3504883 19.7888889,50 C19.7888889,50 22.370078,43.9655273 22.370078,40.5172852 C22.3839181,39.344043 22.161501,38.1800781 21.7161793,37.0948242 C7.51120858,37.6724609 0,29.3103516 0,29.3103516 C5.16237817,28.4482422 12.905848,23.2758789 15.487037,23.2758789 C17.2395712,23.3201172 18.9772904,23.6102539 20.6494152,24.1379883 C20.6494152,24.1379883 22.3701754,23.2758789 22.3701754,22.4138672 C22.3701754,21.5518555 20.6493177,16.3792969 24.9512671,16.3792969 C29.2532164,16.3792969 27.5324561,21.5517578 27.5324561,22.4137695 C27.5324561,23.2757813 29.2532164,24.1378906 29.2532164,24.1378906 C30.9253411,23.6102539 32.6630604,23.3200195 34.4155945,23.2757813 C36.9967836,23.2757813 44.7402534,28.4481445 49.9026316,29.3102539 C49.9026316,29.3103516 42.3913255,37.6724609 28.1863548,37.0948242 Z" id="Path" fill="#67B9CC"></path>
                    <path d="M28.3927875,10.3448242 L48.1816764,10.3448242 C49.1308967,10.3419922 49.8996101,9.57167969 49.9024366,8.62070313 C49.8954191,7.67138672 49.1290448,6.90361328 48.1816764,6.89658203 L43.0192982,6.89658203 C42.0718324,6.88955078 41.3055556,6.12167969 41.298538,5.17246094 C41.3013645,4.22138672 42.0701754,3.45117187 43.0192982,3.44833984 L46.4608187,3.44833984 C47.410039,3.44550781 48.1787524,2.67519531 48.1815789,1.72421875 C48.1840156,1.26679687 48.0007797,0.828027344 47.6739766,0.508691406 C47.3552632,0.18125 46.9173489,-0.00234375 46.4608187,7.36147289e-05 L10.3246589,7.36147289e-05 C9.3754386,0.0029296875 8.60672515,0.773242187 8.60387464,1.72421875 C8.60146199,2.18164062 8.78469786,2.62041016 9.11150097,2.93974609 C9.43021442,3.2671875 9.86812865,3.45078125 10.3246589,3.44833984 L31.8344055,3.44833984 C32.7836257,3.45117187 33.5523392,4.22148438 33.5551657,5.17246094 C33.5481481,6.12177734 32.7818713,6.88955078 31.8344055,6.89658203 L18.0681287,6.89658203 C17.1189084,6.89941406 16.3501949,7.66972656 16.3473684,8.62070313 C16.354386,9.57001953 17.1207602,10.337793 18.0681287,10.3448242 L28.3927875,10.3448242 Z" id="Path" fill="#BDC3C7"></path>
                    <g id="Group" transform="translate(7.699805, 26.660156)" fill="#41767F">
                        <path d="M0.904093567,5.10371288 C0.48791423,5.10458984 0.130896686,4.80683594 0.056042885,4.39667969 C-0.0188109162,3.98652344 0.210038986,3.58144531 0.599512671,3.43476562 C2.50185185,2.71494141 4.56764133,1.71582031 6.38908382,0.835644531 C6.87865497,0.598535156 7.35701754,0.367578125 7.81900585,0.145996094 C8.24785575,-0.0594726563 8.76169591,0.122363281 8.96676413,0.552050781 C9.17183236,0.981738281 8.99035088,1.49658203 8.56150097,1.70205078 C8.10292398,1.92011719 7.62797271,2.15029297 7.14181287,2.38476562 C5.28684211,3.28134766 3.18401559,4.29765625 1.2128655,5.04511719 C1.11452242,5.08339844 1.00974659,5.10332031 0.904093567,5.10371288 Z" id="Path"></path>
                        <path d="M7.3871345,6.82786161 C6.98479532,6.83115234 6.63382066,6.55458984 6.54230019,6.16191406 C6.45077973,5.76933594 6.64298246,5.36552734 7.00516569,5.18984375 C8.4454191,4.47607422 10.0165692,3.48212891 11.4026316,2.60361328 C11.7769006,2.36738281 12.1425926,2.13554687 12.4953216,1.91396484 C12.7566277,1.75136719 13.0846004,1.74072266 13.355848,1.88613281 C13.6269981,2.03154297 13.8001949,2.31083984 13.8101365,2.61884766 C13.820078,2.92685547 13.6652047,3.21679687 13.4038986,3.37939453 C13.0545809,3.59667969 12.6923977,3.82597656 12.3224172,4.06044922 C10.85,5.02695312 9.33001949,5.91894531 7.76842105,6.73291016 C7.6502924,6.79384766 7.51978558,6.82626953 7.3871345,6.82786161 Z" id="Path"></path>
                        <path d="M33.5988304,5.23643533 C33.4948343,5.23623047 33.3917154,5.21748047 33.2942495,5.18125 C31.3282651,4.43642578 29.2341131,3.42353516 27.3859649,2.53037109 C26.8929825,2.29160156 26.4111111,2.05878906 25.9457115,1.84072266 C25.5163743,1.63642578 25.3336257,1.12216797 25.5374269,0.691992188 C25.7413255,0.261816406 26.2545809,0.0787109375 26.6839181,0.282910156 C27.1519493,0.505371094 27.637232,0.73984375 28.1336257,0.980371094 C29.9499025,1.85800781 32.0053606,2.85283203 33.9034113,3.56660156 C34.294152,3.71259766 34.524269,4.11826172 34.4492203,4.52939453 C34.374269,4.94042969 34.0158869,5.23837891 33.5988304,5.23643533 Z" id="Path"></path>
                        <path d="M27.1157895,6.96054687 C26.9838207,6.96171875 26.8533138,6.93222656 26.7346004,6.87431641 C25.2202729,6.1234375 23.6139376,5.10703125 22.1968811,4.21054688 C21.8208577,3.97177734 21.4535088,3.73984375 21.0990253,3.52089844 C20.8377193,3.35830078 20.6829435,3.06835938 20.6927875,2.76035156 C20.702729,2.45234375 20.8759259,2.17304688 21.147076,2.02763672 C21.4182261,1.88222656 21.7462963,1.89287109 22.0076023,2.05546875 C22.3654971,2.27792969 22.7363548,2.51318359 23.1157895,2.75292969 C24.4975634,3.62792969 26.0634503,4.61845703 27.4977583,5.33056641 C27.8599415,5.50625 28.0521442,5.91005859 27.9606238,6.30263672 C27.8691033,6.69521484 27.5181287,6.97177734 27.1157895,6.96858256 L27.1157895,6.96054687 Z" id="Path"></path>
                    </g>
                </g>
                <g id="deer" transform="translate(500.000000, 6.000000)" fill-rule="nonzero">
                    <g id="Group" fill="#CBB292">
                        <path d="M23.284668,24.8455078 C23.0958984,24.1765625 22.1571289,21.2162109 19.8769531,19.637793 C18.1985352,18.4783203 18.3381836,15.059375 18.6416016,12.8076172 C18.70625,12.4328125 18.5175781,12.0599609 18.1774414,11.8899414 C17.837207,11.7199219 17.4257812,11.7929687 17.1649414,12.0696289 C15.7212891,13.6219727 15.1271484,15.7817383 15.5735352,17.8541016 C15.5735352,17.8541016 14.7114258,16.0713867 9.54941406,15.1816406 C6.02529297,14.5730469 6.50976563,10.2255859 7.17265625,7.52734375 C7.28349609,7.16845703 7.14912109,6.77910156 6.84052734,6.56484375 C6.53193359,6.35068359 6.12021484,6.3609375 5.82265625,6.59023437 C4.46103516,7.53955078 3.61337891,9.06376953 3.52519531,10.7212891 C3.52519531,10.7212891 2.13554688,7.12216797 4.35019531,1.21787109 C4.50058594,0.863574219 4.39980469,0.452636719 4.10253906,0.208203125 C3.80527344,-0.0362304687 3.38261719,-0.055859375 3.0640625,0.16015625 C1.43818359,1.39726562 -0.421386719,4.08261719 0.0846679688,9.82998047 C0.0846679688,9.82998047 0.0846679688,15.1799805 6.10878906,17.8541016 C12.1329102,20.5282227 14.7130859,18.7463867 20.737207,24.9876953 L23.284668,24.8455078 Z" id="Path"></path>
                        <path d="M29.259668,24.9876953 C35.2837891,18.7462891 37.8657227,20.5291016 43.8898437,17.8541016 C49.9139648,15.1791016 49.912207,9.82998047 49.912207,9.82998047 C50.4182617,4.08251953 48.5587891,1.39726562 46.9329102,0.16015625 C46.6140625,-0.056640625 46.1904297,-0.0372070313 45.8927734,0.207910156 C45.5951172,0.453027344 45.4949219,0.865136719 45.6466797,1.21962891 C47.8613281,7.12392578 46.4716797,10.7230469 46.4716797,10.7230469 C46.3834961,9.06552734 45.5358398,7.54130859 44.1742187,6.59199219 C43.8769531,6.36337891 43.465918,6.353125 43.1576172,6.56669922 C42.8493164,6.78027344 42.7145508,7.16865234 42.8242187,7.52734375 C43.4871094,10.2255859 43.9716797,14.5730469 40.4474609,15.1816406 C35.2836914,16.0730469 34.4233398,17.8541016 34.4233398,17.8541016 C34.8697266,15.7817383 34.2755859,13.6219727 32.8319336,12.0696289 C32.5709961,11.7929687 32.1595703,11.7199219 31.8194336,11.8899414 C31.4791992,12.0599609 31.290625,12.4328125 31.3552734,12.8076172 C31.6586914,15.059375 31.7983398,18.4783203 30.1199219,19.637793 C27.8397461,21.2162109 26.9009766,24.1765625 26.712207,24.8455078 L29.259668,24.9876953 Z" id="Path"></path>
                    </g>
                    <path d="M31.7760742,40.5385742 C33.1948242,41.9500977 33.8044922,43.9827148 33.3967773,45.9419922 C33.0166016,47.7005859 31.277832,48.7118164 29.4803711,49.2919922 C26.5636719,50.2142578 23.4341797,50.21875 20.5148437,49.3048828 C18.6829102,48.7273438 16.9027344,47.7143555 16.5200195,45.9427734 C16.1123047,43.9834961 16.7219727,41.9507812 18.1407227,40.5393555 L31.7760742,40.5385742 Z" id="Path" fill="#805333"></path>
                    <g id="Group" transform="translate(8.593750, 22.363281)" fill="#CB8252">
                        <path d="M16.4061699,1.76367734 C16.3968699,1.76257734 16.3877699,1.75957734 16.3796699,1.75487734" id="Path"></path>
                        <path d="M8.77539063,6.94431836 C8.6375,6.95311836 8.49951172,6.97081836 8.37021484,6.97081836" id="Path"></path>
                        <line x1="9.50820312" y1="3.90898438" x2="9.40478516" y2="3.80556641" id="Path"></line>
                        <path d="M16.3720078,1.75487734 C16.3547078,1.75977734 16.3370078,1.76267734 16.3190078,1.76367734" id="Path"></path>
                        <path d="M32.6978516,0.124414063 C32.6978516,0.124414063 32.6978516,7.46064453 24.3530273,6.96923828 C24.5589844,8.11181641 24.4638672,9.28837891 24.0771484,10.3830078 C23.2150391,12.9692383 24.9392578,16.4174805 23.2150391,18.1416016 C21.5081055,19.8485352 18.9650391,21.5553711 16.4046875,21.5898438 L16.318457,21.5898438 C13.7581055,21.5553711 11.2150391,19.8484375 9.50810547,18.1416016 C7.78398438,16.4174805 9.50810547,12.9691406 8.64599609,10.3830078 C8.25927734,9.28828125 8.16416016,8.11181641 8.37011719,6.96923828 C0.0252929688,7.46064453 0.0252929688,0.124414063 0.0252929688,0.124414063 C4.671875,-0.565234375 8.71494141,3.13300781 9.40458984,3.80546875 L9.50800781,3.48652344 C11.1458984,1.02958984 15.8958984,1.68476563 16.3701172,1.75380859 L16.3787109,1.75380859 C16.9735352,1.66757812 21.602832,1.06416016 23.2149414,3.48652344 L23.3183594,3.80546875 C24.0082031,3.13310547 28.0512695,-0.565234375 32.6978516,0.124414063 Z" id="Path"></path>
                        <path d="M24.3530273,6.97081836 C24.2237305,6.97081836 24.0857422,6.95311836 23.9478516,6.94431836" id="Path"></path>
                        <line x1="23.3185547" y1="3.80546875" x2="23.2151367" y2="3.90888672" id="Path"></line>
                    </g>
                    <path d="M24.9123003,37.0567383 L25.9985352,37.0567383 C26.3963867,37.0567383 26.7779297,37.2147461 27.0591797,37.4960938 C27.3405273,37.7774414 27.4985352,38.1588867 27.4985352,38.5567383 L27.4985352,38.5619141 C27.4986328,39.2077148 27.0853516,39.7810547 26.4726563,39.9851563 L24.9123003,40.5049805 L24.9985352,40.5049805 L23.4381836,39.9876953 C22.8243164,39.7832031 22.4107422,39.2080078 22.4123003,38.5609375 L22.4123003,38.5557617 C22.412793,37.7276367 23.0841797,37.0566406 23.9123003,37.0566406 L24.9985352,37.0566406" id="Path" fill="#2C2F38"></path>
                    <g id="Group" transform="translate(20.605469, 31.835938)" fill="#ECF0F1">
                        <path d="M1.80683594,0.0483398438 L0.944726563,0.0483398438 C0.468652344,0.0483398438 0.0826171875,0.434277344 0.0826171875,0.910449219 C0.0826171875,1.38662109 0.468554688,1.77255859 0.944726563,1.77255859 L1.80683594,1.77255859 C2.28291016,1.77255859 2.66894531,1.38662109 2.66894531,0.910449219 C2.66894531,0.434277344 2.28291016,0.0483398438 1.80683594,0.0483398438 Z" id="Path"></path>
                        <path d="M7.84130859,0.0483398438 L6.97919922,0.0483398438 C6.503125,0.0483398438 6.11708984,0.434277344 6.11708984,0.910449219 C6.11708984,1.38662109 6.50302734,1.77255859 6.97919922,1.77255859 L7.84130859,1.77255859 C8.31738281,1.77255859 8.70341797,1.38662109 8.70341797,0.910449219 C8.70341797,0.434277344 8.31738281,0.0483398438 7.84130859,0.0483398438 Z" id="Path"></path>
                    </g>
                </g>
                <text id="" font-family="FontAwesome5FreeSolid, Font Awesome 5 Free" font-size="50" font-weight="700" letter-spacing="-2.38095263" fill="#009068">
                    <tspan x="200" y="50"></tspan>
                </text>
                <g id="fruit-tree" transform="translate(600.000000, 3.000000)" fill-rule="nonzero">
                    <path d="M25.9455752,27.9039062 L23.9661504,27.9039062 C23.4473451,27.9039062 23.0222345,28.3037305 23.0061947,28.8072168 L22.0759956,53.9916309 L27.8357301,53.9916309 L26.9045354,28.8072168 C26.8884956,28.3040527 26.4640487,27.9042285 25.9455752,27.9039062 Z" id="Path" fill="#7F5B53"></path>
                    <g id="Group" transform="translate(10.508850, 52.958984)" fill="#805333">
                        <path d="M20.2067478,0.100439453 L1.00774336,0.100439453 C0.477544248,0.100439453 0.0477876106,0.517773437 0.0477876106,1.03264648 C0.0477876106,1.54751953 0.477544248,1.96485352 1.00774336,1.96485352 L20.2067478,1.96485352 C20.7369469,1.96485352 21.1667035,1.54751953 21.1667035,1.03264648 C21.1667035,0.517880859 20.7369469,0.100439453 20.2067478,0.100439453 Z" id="Path"></path>
                        <path d="M27.8863938,0.100439453 L24.0465708,0.100439453 C23.5163717,0.100439453 23.086615,0.517773437 23.086615,1.03264648 C23.086615,1.54751953 23.5163717,1.96485352 24.0465708,1.96485352 L27.8863938,1.96485352 C28.4165929,1.96485352 28.8463496,1.54751953 28.8463496,1.03264648 C28.8463496,0.517880859 28.4165929,0.100439453 27.8863938,0.100439453 Z" id="Path"></path>
                    </g>
                    <path d="M49.9147147,27.8899414 C49.9169248,33.2853125 46.917146,38.2609863 42.0712389,40.9000195 C37.2252212,43.5391602 31.2891593,43.4299121 26.5495575,40.6144922 C26.2423673,40.4373535 25.9544248,40.2509766 25.6663717,40.0551465 C25.4264381,39.8873535 25.1863938,39.7102148 24.9559735,39.5330762 C20.1522124,43.261582 13.5213496,43.8482129 8.10287611,41.0239844 C2.68440265,38.1997559 -0.47710177,32.5095117 0.0675884956,26.5611328 C0.612278761,20.6127539 4.75807522,15.553291 10.604646,13.701875 C11.2678097,5.8118457 18.1628319,-0.200556641 26.3119469,0.00515625 C34.4610619,0.210869141 41.0251106,6.56283203 41.2654867,14.4756348 C46.5581858,16.9672852 49.9179204,22.1781055 49.9147147,27.8899414 Z" id="Path" fill="#4FBA6F"></path>
                    <g id="Group" transform="translate(5.752212, 3.652344)" fill="#C03A2B">
                        <ellipse id="Oval" cx="2.88451327" cy="27.9664258" rx="2.87986726" ry="2.79662109"></ellipse>
                        <ellipse id="Oval" cx="8.16426991" cy="18.178252" rx="2.39988938" ry="2.33051758"></ellipse>
                        <ellipse id="Oval" cx="15.3639381" cy="28.8986328" rx="1.9199115" ry="1.86441406"></ellipse>
                        <ellipse id="Oval" cx="35.5228982" cy="20.5087695" rx="2.87986726" ry="2.79662109"></ellipse>
                        <ellipse id="Oval" cx="30.7231195" cy="32.6274609" rx="2.87986726" ry="2.79662109"></ellipse>
                        <ellipse id="Oval" cx="19.2036504" cy="1.86473633" rx="1.9199115" ry="1.86441406"></ellipse>
                        <ellipse id="Oval" cx="23.0434735" cy="15.8478418" rx="1.9199115" ry="1.86441406"></ellipse>
                    </g>
                    <path d="M31.6275442,29.0831836 C30.9363938,34.6483887 27.2597345,39.1975977 25.6662611,40.0552539 C25.4263274,39.8874609 25.1862832,39.7103223 24.9558628,39.5331836 C27.7849558,36.6710352 29.4699115,32.9226562 29.7076327,28.9620117 C29.7525442,28.4510059 30.2074115,28.0669727 30.7347345,28.0951172 C30.9900442,28.1058594 31.2298673,28.2174707 31.3984513,28.4040625 C31.5670354,28.5905469 31.6497788,28.8358984 31.6275442,29.0831836 Z" id="Path" fill="#4C8056"></path>
                    <g id="Group" transform="translate(6.858407, 4.189453)" fill="#E64C3C">
                        <path d="M2.35432844,26.9799707 C2.35663717,27.4356543 2.07544248,27.8477246 1.64225664,28.0231445 C1.20918142,28.1985645 0.709845133,28.1027441 0.377986726,27.7804785 C0.0461283186,27.4582129 -0.0525442478,26.9733105 0.128097345,26.5527539 C0.308738938,26.1321973 0.733075221,25.8590234 1.20232301,25.8613715 C1.83727876,25.8643945 2.35110619,26.3634766 2.35432844,26.9799707 Z" id="Path"></path>
                        <ellipse id="Oval" cx="29.1369469" cy="31.5030762" rx="1.15674779" ry="1.12331055"></ellipse>
                        <path d="M35.1539823,19.3313184 C35.1539823,19.9522168 34.6356195,20.4555957 33.9962389,20.4555957 C33.3568584,20.4555957 32.8384956,19.9522168 32.8384956,19.3313184 C32.8384956,18.7104199 33.3568584,18.207041 33.9962389,18.207041 C34.6356195,18.207041 35.1539823,18.7104199 35.1539823,19.3313184 Z" id="Path"></path>
                        <ellipse id="Oval" cx="6.50420354" cy="17.162041" rx="1.04634956" ry="1.01610352"></ellipse>
                        <ellipse id="Oval" cx="21.7107301" cy="14.9807324" rx="1" ry="1"></ellipse>
                        <ellipse id="Oval" cx="17.8709071" cy="0.997626953" rx="1" ry="1"></ellipse>
                        <ellipse id="Oval" cx="13.8506637" cy="28.0315234" rx="1" ry="1"></ellipse>
                    </g>
                </g>
            </g>
        </g>
    </g>
</svg>