<?xml version="1.0"?>
<svg xmlns="http://www.w3.org/2000/svg" height="512px" viewBox="-21 -21 682.66796 682" width="512px"><path d="m319.996094 79.082031c-6.90625 0-12.5-5.59375-12.5-12.5v-53.75c0-6.902343 5.59375-12.5 12.5-12.5 6.902344 0 12.5 5.597657 12.5 12.5v53.75c0 6.90625-5.597656 12.5-12.5 12.5zm0 0" fill="#15909f"/><path d="m102.558594 550.269531c-3.199219 0-6.394532-1.21875-8.835938-3.660156-4.882812-4.882813-4.882812-12.800781 0-17.683594l38.007813-38c4.882812-4.882812 12.796875-4.882812 17.675781 0 4.882812 4.875 4.882812 12.792969 0 17.675781l-38.007812 38.007813c-2.4375 2.441406-5.636719 3.660156-8.839844 3.660156zm0 0" fill="#15909f"/><path d="m145 149.082031c-3.300781 0-6.597656-1.296875-9.050781-3.878906l-37.070313-38.921875c-4.761718-4.996094-4.570312-12.910156.429688-17.671875s12.910156-4.570313 17.675781.429687l37.0625 38.925782c4.761719 4.996094 4.570313 12.910156-.429687 17.671875-2.421876 2.304687-5.519532 3.445312-8.617188 3.445312zm0 0" fill="#15909f"/><path d="m12.5 330.601562c-6.875 0-12.4648438-5.554687-12.5-12.4375-.0351562-6.902343 5.539062-12.527343 12.4375-12.5625l53.75-.269531h.0625c6.875 0 12.464844 5.558594 12.5 12.4375.03125 6.90625-5.535156 12.53125-12.441406 12.5625l-53.746094.269531c-.023438 0-.042969 0-.0625 0zm0 0" fill="#15909f"/><path d="m497.96875 151.960938c-3.167969 0-6.332031-1.199219-8.769531-3.589844-4.921875-4.84375-4.984375-12.757813-.140625-17.679688l37.699218-38.3125c4.839844-4.921875 12.753907-4.984375 17.675782-.140625s4.984375 12.753907.140625 17.675781l-37.695313 38.316407c-2.445312 2.484375-5.675781 3.730469-8.910156 3.730469zm0 0" fill="#15909f"/><path d="m533.863281 553.785156c-3.273437 0-6.535156-1.273437-8.984375-3.808594l-37.382812-38.617187c-4.804688-4.960937-4.671875-12.875.289062-17.675781 4.953125-4.800782 12.871094-4.671875 17.675782.28125l37.382812 38.625c4.796875 4.960937 4.667969 12.871094-.289062 17.675781-2.425782 2.347656-5.5625 3.519531-8.691407 3.519531zm0 0" fill="#15909f"/><path d="m573.753906 333.28125c-6.828125 0-12.40625-5.492188-12.492187-12.335938-.09375-6.902343 5.429687-12.574218 12.332031-12.664062l53.742188-.703125h.167968c6.828125 0 12.410156 5.488281 12.496094 12.335937.089844 6.902344-5.433594 12.574219-12.332031 12.664063l-53.746094.699219c-.054687.003906-.113281.003906-.167969.003906zm0 0" fill="#15909f"/><path d="m507.5 291.671875c0-49.640625-19.214844-96.425781-54.085938-131.738281-34.839843-35.289063-81.3125-55.089844-130.863281-55.753906-50.675781-.632813-98.511719 18.78125-134.675781 54.777343-36.160156 36-55.824219 83.738281-55.375 134.414063.351562 38.902344 12.5 76.097656 35.152344 107.601562 20.761718 28.886719 48.835937 51.019532 81.511718 64.335938v25.089844c-19.726562 1.085937-35.414062 17.460937-35.414062 37.433593 0 18.550781 13.527344 34 31.25 36.964844v.535156c0 41.347657 33.636719 75 75 75 41.351562 0 75-33.652343 75-75v-.535156c17.714844-2.972656 31.25-18.414063 31.25-36.964844 0-19.972656-15.710938-36.359375-35.425781-37.433593v-25.089844c70.074219-28.613282 116.675781-97.5 116.675781-173.636719zm-152.164062 309c-9.0625 9.0625-21.5625 14.660156-35.335938 14.660156-27.574219 0-50-22.425781-50-50h100c0 13.789063-5.609375 26.289063-14.664062 35.339844zm45.914062-72.839844c0 6.890625-5.609375 12.5-12.5 12.5h-137.5c-6.898438 0-12.5-5.609375-12.5-12.5 0-6.886719 5.601562-12.5 12.5-12.5h137.5c6.890625 0 12.5 5.613281 12.5 12.5zm-25.640625-83.4375c-5.847656 2.125-9.785156 7.75-9.785156 13.964844v31.972656h-33.324219v-100c0-6.898437-5.601562-12.5-12.5-12.5-6.914062 0-12.5 5.601563-12.5 12.5v100h-33.335938v-31.972656c0-6.214844-3.9375-11.839844-9.789062-13.976563-30.785156-11.210937-57.210938-31.261718-76.425781-58-19.625-27.285156-30.152344-59.527343-30.449219-93.238281-.386719-43.886719 16.664062-85.246093 48.011719-116.464843 31.363281-31.21875 72.8125-48.058594 116.699219-47.5 42.941406.578124 83.214843 17.730468 113.414062 48.316406 30.226562 30.601562 46.875 71.148437 46.875 114.175781 0 68.050781-42.949219 129.421875-106.890625 152.722656zm0 0" fill="#15909f"/><path d="m320.019531 359.082031c-6.902343 0-12.503906-5.59375-12.503906-12.5 0-6.902343 5.589844-12.5 12.496094-12.5h.007812c6.90625 0 12.5 5.597657 12.5 12.5 0 6.90625-5.59375 12.5-12.5 12.5zm0 0" fill="#15909f"/><path d="m320.019531 359.578125c-6.902343 0-12.503906-5.601563-12.503906-12.5 0-6.90625 5.589844-12.5 12.496094-12.5h.007812c6.90625 0 12.5 5.59375 12.5 12.5 0 6.898437-5.59375 12.5-12.5 12.5zm0 0" fill="#15909f"/><path d="m376.246094 359.597656c-6.898438 0-12.5-5.597656-12.5-12.5v-31.25h-87.5v31.25c0 6.902344-5.597656 12.5-12.5 12.5-6.90625 0-12.5-5.597656-12.5-12.5v-43.75c0-6.902344 5.59375-12.5 12.5-12.5h112.5c6.902344 0 12.5 5.597656 12.5 12.5v43.75c0 6.902344-5.597656 12.5-12.5 12.5zm0 0" fill="#15909f"/></svg>
