<?xml version="1.0" encoding="UTF-8"?>
<svg width="578px" height="162px" viewBox="0 0 578 162" version="1.1" xmlns="http://www.w3.org/2000/svg" xmlns:xlink="http://www.w3.org/1999/xlink">
    <!-- Generator: Sketch 63.1 (92452) - https://sketch.com -->
    <title>Group 23</title>
    <desc>Created with Sketch.</desc>
    <g id="Assets" stroke="none" stroke-width="1" fill="none" fill-rule="evenodd">
        <g id="Group-23" transform="translate(1.000000, 1.000000)">
            <rect id="Rectangle" stroke-opacity="0.1" stroke="#111111" fill="#FFFFFF" x="0" y="0" width="576" height="160"></rect>
            <g id="security-2" transform="translate(145.000000, 50.000000)" fill-rule="nonzero">
                <g id="security">
                    <ellipse id="Oval" fill="#A29BFE" cx="5.08163265" cy="30.7333333" rx="3.68877551" ry="4.01666667"></ellipse>
                    <ellipse id="Oval" fill="#A29BFE" cx="5.08163265" cy="7.08333333" rx="3.68877551" ry="4.01666667"></ellipse>
                    <ellipse id="Oval" fill="#A29BFE" cx="5.08163265" cy="54.3666667" rx="3.68877551" ry="4.01666667"></ellipse>
                    <ellipse id="Oval" fill="#A29BFE" cx="69.8265306" cy="30.7333333" rx="3.68877551" ry="4.01666667"></ellipse>
                    <ellipse id="Oval" fill="#A29BFE" cx="69.8265306" cy="54.3666667" rx="3.68877551" ry="4.01666667"></ellipse>
                    <ellipse id="Oval" fill="#A29BFE" cx="69.8265306" cy="7.08333333" rx="3.68877551" ry="4.01666667"></ellipse>
                    <g id="Group" fill="#4B4D66">
                        <path d="M48.8877551,17.9666667 L48.4744898,17.9666667 L48.4744898,12 C48.4744898,5.38333333 43.5306122,0 37.4540816,0 C31.377551,0 26.4336735,5.38333333 26.4336735,12 C26.4336735,12.8333333 27.0612245,13.5166667 27.8265306,13.5166667 C28.5918367,13.5166667 29.2193878,12.8333333 29.2193878,12 C29.2193878,7.05 32.9234694,3.01666667 37.4693878,3.01666667 C42.0153061,3.01666667 45.7193878,7.05 45.7193878,12 L45.7193878,17.9666667 L26.0204082,17.9666667 C24.0306122,17.9666667 22.4081633,19.7333333 22.4081633,21.9 L22.4081633,38.2833333 C22.4081633,40.45 24.0306122,42.2166667 26.0204082,42.2166667 L48.872449,42.2166667 C50.8622449,42.2166667 52.4846939,40.45 52.4846939,38.2833333 L52.4846939,21.9 C52.4846939,19.7333333 50.877551,17.9666667 48.8877551,17.9666667 Z M49.7142857,38.2666667 C49.7142857,38.7666667 49.3469388,39.1666667 48.8877551,39.1666667 L26.0204082,39.1666667 C25.5612245,39.1666667 25.1938776,38.7666667 25.1938776,38.2666667 L25.1938776,21.8833333 C25.1938776,21.3833333 25.5612245,20.9833333 26.0204082,20.9833333 L48.872449,20.9833333 C49.3316327,20.9833333 49.6989796,21.3833333 49.6989796,21.8833333 L49.6989796,38.2666667 L49.7142857,38.2666667 Z" id="Shape"></path>
                        <path d="M37.8520408,25.8166667 C36.8418367,25.6 35.7857143,26.2166667 35.3571429,27.2666667 C34.9132653,28.35 35.2040816,29.5666667 36.1071429,30.2833333 C36.2908163,30.4333333 36.3214286,30.5666667 36.3214286,30.7833333 C36.3214286,31.8666667 36.3214286,32.9333333 36.3214286,34.0166667 L36.3214286,34.0166667 C36.3214286,34.9 37.1785714,35.5833333 38.0510204,35.1 C38.4183673,34.9 38.6326531,34.4666667 38.6020408,34.0166667 L38.6020408,34.0166667 C38.6020408,32.9333333 38.6020408,31.8666667 38.6020408,30.7833333 C38.6020408,30.55 38.6479592,30.4 38.8469388,30.25 C39.4744898,29.75 39.7806122,29.0666667 39.7806122,28.2333333 C39.75,27.0333333 38.9693878,26.05 37.8520408,25.8166667 Z" id="Path"></path>
                        <path d="M17.6632653,29.2166667 L9.96428571,29.2166667 C9.35204082,26.9 7.40816327,25.2 5.08163265,25.2 C2.28061224,25.2 0,27.6833333 0,30.7333333 C0,33.7833333 2.28061224,36.2666667 5.08163265,36.2666667 C7.39285714,36.2666667 9.35204082,34.5666667 9.96428571,32.25 L17.6785714,32.25 C18.4438776,32.25 19.0714286,31.5666667 19.0714286,30.7333333 C19.0561224,29.9 18.4285714,29.2166667 17.6632653,29.2166667 Z M5.08163265,33.2333333 C3.81122449,33.2333333 2.78571429,32.1166667 2.78571429,30.7333333 C2.78571429,29.35 3.81122449,28.2333333 5.08163265,28.2333333 C6.35204082,28.2333333 7.37755102,29.35 7.37755102,30.7333333 C7.37755102,32.1166667 6.35204082,33.2333333 5.08163265,33.2333333 Z" id="Shape"></path>
                        <path d="M17.6632653,20.3333333 L9.22959184,20.3333333 C7.71428571,20.3333333 6.4744898,18.9833333 6.4744898,17.3333333 L6.4744898,12.4 C8.60204082,11.7333333 10.1632653,9.61666667 10.1632653,7.08333333 C10.1632653,4.03333333 7.88265306,1.55 5.08163265,1.55 C2.28061224,1.55 0,4.03333333 0,7.08333333 C0,9.6 1.56122449,11.7333333 3.68877551,12.4 L3.68877551,17.3333333 C3.68877551,20.65 6.16836735,23.35 9.21428571,23.35 L17.6632653,23.35 C18.4285714,23.35 19.0561224,22.6666667 19.0561224,21.8333333 C19.0561224,21 18.4285714,20.3333333 17.6632653,20.3333333 Z M2.77040816,7.08333333 C2.77040816,5.7 3.79591837,4.58333333 5.06632653,4.58333333 C6.33673469,4.58333333 7.3622449,5.7 7.3622449,7.08333333 C7.3622449,8.46666667 6.33673469,9.58333333 5.06632653,9.58333333 C3.79591837,9.58333333 2.77040816,8.46666667 2.77040816,7.08333333 Z" id="Shape"></path>
                        <path d="M17.6632653,38.1 L9.22959184,38.1 C6.18367347,38.1 3.70408163,40.8 3.70408163,44.1166667 L3.70408163,49.05 C1.57653061,49.7166667 0.0153061224,51.8333333 0.0153061224,54.3666667 C0.0153061224,57.4166667 2.29591837,59.9 5.09693878,59.9 C7.89795918,59.9 10.1785714,57.4166667 10.1785714,54.3666667 C10.1785714,51.85 8.61734694,49.7166667 6.48979592,49.05 L6.48979592,44.1166667 C6.48979592,42.4666667 7.72959184,41.1166667 9.24489796,41.1166667 L17.6938776,41.1166667 C18.4591837,41.1166667 19.0867347,40.4333333 19.0867347,39.6 C19.0561224,38.7833333 18.4285714,38.1 17.6632653,38.1 Z M7.37755102,54.3666667 C7.37755102,55.75 6.35204082,56.8666667 5.08163265,56.8666667 C3.81122449,56.8666667 2.78571429,55.75 2.78571429,54.3666667 C2.78571429,52.9833333 3.81122449,51.8666667 5.08163265,51.8666667 C6.35204082,51.8666667 7.37755102,52.9833333 7.37755102,54.3666667 Z" id="Shape"></path>
                        <path d="M69.8265306,25.2 C67.5153061,25.2 65.5561224,26.9 64.9438776,29.2166667 L57.2295918,29.2166667 C56.4642857,29.2166667 55.8367347,29.9 55.8367347,30.7333333 C55.8367347,31.5666667 56.4642857,32.25 57.2295918,32.25 L64.9438776,32.25 C65.5561224,34.5666667 67.5,36.2666667 69.8265306,36.2666667 C72.627551,36.2666667 74.9081633,33.7833333 74.9081633,30.7333333 C74.9081633,27.6833333 72.627551,25.2 69.8265306,25.2 Z M69.8265306,33.2333333 C68.5561224,33.2333333 67.5306122,32.1166667 67.5306122,30.7333333 C67.5306122,29.35 68.5561224,28.2333333 69.8265306,28.2333333 C71.0969388,28.2333333 72.122449,29.35 72.122449,30.7333333 C72.1377551,32.1166667 71.0969388,33.2333333 69.8265306,33.2333333 Z" id="Shape"></path>
                        <path d="M71.2193878,49.05 L71.2193878,44.1166667 C71.2193878,40.8 68.7397959,38.1 65.6938776,38.1 L57.244898,38.1 C56.4795918,38.1 55.8520408,38.7833333 55.8520408,39.6166667 C55.8520408,40.45 56.4795918,41.1333333 57.244898,41.1333333 L65.6938776,41.1333333 C67.2091837,41.1333333 68.4489796,42.4833333 68.4489796,44.1333333 L68.4489796,49.0666667 C66.3214286,49.7333333 64.7602041,51.85 64.7602041,54.3833333 C64.7602041,57.4333333 67.0408163,59.9166667 69.8418367,59.9166667 C72.6428571,59.9166667 74.9234694,57.4333333 74.9234694,54.3833333 C74.9081633,51.85 73.3469388,49.7166667 71.2193878,49.05 Z M69.8265306,56.8833333 C68.5561224,56.8833333 67.5306122,55.7666667 67.5306122,54.3833333 C67.5306122,53 68.5561224,51.8833333 69.8265306,51.8833333 C71.0969388,51.8833333 72.122449,53 72.122449,54.3833333 C72.1377551,55.75 71.0969388,56.8833333 69.8265306,56.8833333 Z" id="Shape"></path>
                        <path d="M57.244898,23.35 L65.6938776,23.35 C68.7397959,23.35 71.2193878,20.65 71.2193878,17.3333333 L71.2193878,12.4 C73.3469388,11.7333333 74.9081633,9.61666667 74.9081633,7.08333333 C74.9081633,4.03333333 72.627551,1.55 69.8265306,1.55 C67.0255102,1.55 64.744898,4.03333333 64.744898,7.08333333 C64.744898,9.6 66.3061224,11.7333333 68.4336735,12.4 L68.4336735,17.3333333 C68.4336735,18.9833333 67.1938776,20.3333333 65.6785714,20.3333333 L57.2295918,20.3333333 C56.4642857,20.3333333 55.8367347,21.0166667 55.8367347,21.85 C55.8520408,22.6666667 56.4795918,23.35 57.244898,23.35 Z M67.5306122,7.08333333 C67.5306122,5.7 68.5561224,4.58333333 69.8265306,4.58333333 C71.0969388,4.58333333 72.122449,5.7 72.122449,7.08333333 C72.122449,8.46666667 71.0969388,9.58333333 69.8265306,9.58333333 C68.5561224,9.58333333 67.5306122,8.46666667 67.5306122,7.08333333 Z" id="Shape"></path>
                    </g>
                </g>
            </g>
            <g id="Group-7" transform="translate(50.000000, 50.000000)" fill-rule="nonzero">
                <ellipse id="Oval" fill="#6C5CE7" cx="4.33521127" cy="47.7791411" rx="3.08028169" ry="2.98159509"></ellipse>
                <ellipse id="Oval" fill="#6C5CE7" cx="40.5380282" cy="47.7791411" rx="3.08028169" ry="2.98159509"></ellipse>
                <path d="M12.1690141,46.6625767 L8.3915493,46.6625767 C7.88450704,44.9447853 6.26197183,43.6809816 4.32253521,43.6809816 C1.99014085,43.6809816 0.101408451,45.5214724 0.101408451,47.7668712 C0.101408451,50.0245399 2.0028169,51.8527607 4.32253521,51.8527607 C6.24929577,51.8527607 7.88450704,50.5889571 8.3915493,48.8711656 L12.1690141,48.8711656 C14.7042254,48.8711656 16.7704225,46.8711656 16.7704225,44.4171779 L16.7704225,37.595092 C16.7704225,36.9815951 16.2507042,36.4785276 15.6169014,36.4785276 C14.9830986,36.4785276 14.4633803,36.9815951 14.4633803,37.595092 L14.4633803,44.4171779 C14.4760563,45.6564417 13.4492958,46.6625767 12.1690141,46.6625767 Z M4.33521127,49.6441718 C3.27042254,49.6441718 2.4084507,48.809816 2.4084507,47.7791411 C2.4084507,46.7484663 3.27042254,45.9141104 4.33521127,45.9141104 C5.4,45.9141104 6.26197183,46.7484663 6.26197183,47.7791411 C6.26197183,48.797546 5.38732394,49.6441718 4.33521127,49.6441718 Z" id="Shape" fill="#4B4D66"></path>
                <path d="M29.243662,36.5030675 C28.6098592,36.5030675 28.0901408,37.006135 28.0901408,37.6196319 L28.0901408,44.4417178 C28.0901408,46.8957055 30.156338,48.8957055 32.6915493,48.8957055 L36.4690141,48.8957055 C36.9760563,50.6134969 38.5985915,51.8773006 40.5380282,51.8773006 C42.8704225,51.8773006 44.7591549,50.0368098 44.7591549,47.791411 C44.7591549,45.5337423 42.8577465,43.7055215 40.5380282,43.7055215 C38.6112676,43.7055215 36.9760563,44.9693252 36.4690141,46.6871166 L32.7042254,46.6871166 C31.4366197,46.6871166 30.3971831,45.6809816 30.3971831,44.4539877 L30.3971831,37.6319018 C30.3971831,36.993865 29.8774648,36.5030675 29.243662,36.5030675 Z M40.5380282,45.9018405 C41.6028169,45.9018405 42.4647887,46.7361963 42.4647887,47.7668712 C42.4647887,48.797546 41.6028169,49.6319018 40.5380282,49.6319018 C39.4732394,49.6319018 38.6112676,48.797546 38.6112676,47.7668712 C38.6112676,46.7484663 39.4859155,45.9018405 40.5380282,45.9018405 Z" id="Shape" fill="#4B4D66"></path>
                <ellipse id="Oval" fill="#A29BFE" cx="22.4366197" cy="55.8650307" rx="3.08028169" ry="2.98159509"></ellipse>
                <path d="M23.6915493,4.26325641e-14 C19.0267606,4.26325641e-14 14.7042254,2.46625767 12.4225352,6.35582822 C11.9535211,6.25766871 11.484507,6.2208589 10.9901408,6.2208589 C7.11126761,6.2208589 3.94225352,9.27607362 3.94225352,13.0429448 C3.94225352,13.5460123 3.99295775,14.0368098 4.10704225,14.5276074 C1.55915493,16.2699387 2.84217094e-14,19.1533742 2.84217094e-14,22.2208589 C2.84217094e-14,27.3496933 4.24647887,31.9141104 9.27887324,32.1840491 C9.30422535,32.1840491 9.31690141,32.1840491 9.34225352,32.1840491 L34.415493,32.1840491 C34.4408451,32.1840491 34.4661972,32.1840491 34.4915493,32.1840491 C40.3098592,31.791411 44.8605634,26.9570552 44.8605634,21.202454 C44.8605634,16.1717791 41.3112676,11.7177914 36.4690141,10.5153374 C35.4802817,4.46625767 30.1183099,4.26325641e-14 23.6915493,4.26325641e-14 Z M42.5788732,21.202454 C42.5788732,25.7177914 38.9028169,29.6441718 34.3901408,29.9631902 L9.38028169,29.9631902 C5.53943662,29.7423313 2.2943662,26.196319 2.2943662,22.2208589 C2.2943662,19.6441718 3.72676056,17.2392638 6.02112676,15.9509202 C6.5028169,15.6809816 6.71830986,15.1042945 6.51549296,14.601227 C6.32535211,14.1104294 6.23661972,13.5828221 6.23661972,13.0306748 C6.23661972,10.4907975 8.36619718,8.42944785 10.9901408,8.42944785 C11.5478873,8.42944785 12.0929577,8.52760736 12.6126761,8.6993865 C13.1704225,8.89570552 13.7915493,8.65030675 14.0577465,8.13496933 C15.8070423,4.5398773 19.5971831,2.2208589 23.7042254,2.2208589 C29.2309859,2.2208589 33.7943662,6.2208589 34.3140845,11.5337423 C34.3647887,12.0368098 34.7577465,12.4417178 35.2647887,12.5276074 C39.4225352,13.2147239 42.5788732,16.9447853 42.5788732,21.202454 Z" id="Shape" fill="#4B4D66"></path>
                <path d="M22.4366197,36.5030675 C21.8028169,36.5030675 21.2830986,37.006135 21.2830986,37.6196319 L21.2830986,51.9386503 C19.5464789,52.4171779 18.2535211,53.9509202 18.2028169,55.7668712 C18.1774648,56.8588957 18.5957746,57.9018405 19.3690141,58.6871166 C20.1422535,59.4723926 21.1943662,59.9263804 22.3225352,59.9509202 L22.4239437,59.9509202 L22.4239437,59.9509202 C24.6929577,59.9509202 26.5943662,58.1595092 26.6450704,55.9631902 C26.6704225,54.8711656 26.2521127,53.8282209 25.4788732,53.0429448 C24.9464789,52.5030675 24.2873239,52.1226994 23.5647887,51.9263804 L23.5647887,37.607362 C23.5901408,36.993865 23.0704225,36.5030675 22.4366197,36.5030675 Z M24.3633803,55.9141104 C24.3380282,56.9202454 23.4760563,57.7300613 22.4366197,57.7300613 L22.3859155,57.7300613 C21.8661972,57.7177914 21.3971831,57.5092025 21.0422535,57.1533742 C20.6873239,56.797546 20.4971831,56.3190184 20.5098592,55.8159509 C20.5352113,54.809816 21.3971831,54 22.4366197,54 L22.4873239,54 C23.0070423,54.0122699 23.4760563,54.2208589 23.8309859,54.5766871 C24.1859155,54.9325153 24.3760563,55.4110429 24.3633803,55.9141104 Z" id="Shape" fill="#4B4D66"></path>
            </g>
            <g id="Group-8" transform="translate(270.000000, 50.000000)" fill-rule="nonzero">
                <ellipse id="XMLID_1944_" fill="#A29BFE" cx="29.7142857" cy="5.78947368" rx="5.14285714" ry="4.73684211"></ellipse>
                <ellipse id="XMLID_1942_" fill="#A29BFE" cx="53.7142857" cy="42.1052632" rx="5.14285714" ry="4.73684211"></ellipse>
                <ellipse id="XMLID_1940_" fill="#A29BFE" cx="6.28571429" cy="42.1052632" rx="5.14285714" ry="4.73684211"></ellipse>
                <path d="M60,17.9497652 C60,14.7763937 57.1278778,12.2033898 53.5855938,12.2033898 C51.6571689,12.2033898 49.9338956,12.9630386 48.7576932,14.1760261 L36.0793253,7.59648765 C36.2981536,7.02062487 36.4212446,6.3957525 36.4212446,5.74637533 C36.4212446,2.57300388 33.5491224,0 30.0068384,0 C26.4645544,0 23.5924322,2.57300388 23.5924322,5.74637533 C23.5924322,6.3957525 23.7155231,7.00837247 23.9343515,7.58423525 L11.2559836,14.1637737 C10.0797812,12.9630386 8.35650786,12.1911374 6.42808297,12.1911374 C2.88579895,12.1911374 0.0136767723,14.7641413 0.0136767723,17.9375128 C0.0136767723,20.6820502 2.17460679,22.9855013 5.04672897,23.5491117 L5.06040574,36.4386359 C2.17460679,37.0022463 0,39.3056974 0,42.0502348 C0,45.2236063 2.87212218,47.7966102 6.4144062,47.7966102 C8.30180078,47.7966102 9.99772054,47.0614662 11.173923,45.8974883 L23.8933212,52.4770268 C23.6881696,53.0406371 23.5787554,53.6287523 23.5787554,54.2536247 C23.5787554,57.4269961 26.4508776,60 29.9931616,60 C33.5354456,60 36.4075678,57.4269961 36.4075678,54.2536247 C36.4075678,53.6287523 36.2981536,53.0406371 36.0930021,52.4770268 L48.8124003,45.8974883 C49.9886027,47.0614662 51.6845225,47.7966102 53.571917,47.7966102 C57.114201,47.7966102 59.9863232,45.2236063 59.9863232,42.0502348 C59.9863232,39.2689402 57.7570093,36.9287319 54.8165033,36.4141311 L54.8165033,23.5736165 C57.7706861,23.0712681 60,20.7433122 60,17.9497652 Z M53.5855938,14.4210741 C55.7602006,14.4210741 57.5245042,16.0016337 57.5245042,17.9497652 C57.5245042,19.8978967 55.7602006,21.4784562 53.5855938,21.4784562 C51.410987,21.4784562 49.6466834,19.8978967 49.6466834,17.9497652 C49.6466834,16.0016337 51.4246638,14.4210741 53.5855938,14.4210741 Z M30.0068384,2.2299367 C32.1814452,2.2299367 33.9457488,3.81049622 33.9457488,5.75862773 C33.9457488,6.3589953 33.7816275,6.92260568 33.4807385,7.42495405 C33.453385,7.44945885 33.4397082,7.47396365 33.4123547,7.51072085 C33.3986779,7.53522565 33.3850011,7.55973045 33.3713244,7.58423525 C32.6874858,8.6011844 31.4292227,9.28731877 30.0068384,9.28731877 C27.8322316,9.28731877 26.067928,7.70675924 26.067928,5.75862773 C26.067928,3.81049622 27.8322316,2.2299367 30.0068384,2.2299367 Z M2.48917256,17.9497652 C2.48917256,16.0016337 4.25347618,14.4210741 6.42808297,14.4210741 C8.60268977,14.4210741 10.3669934,16.0016337 10.3669934,17.9497652 C10.3669934,19.8978967 8.60268977,21.4784562 6.42808297,21.4784562 C4.25347618,21.4784562 2.48917256,19.8978967 2.48917256,17.9497652 Z M6.42808297,45.5911783 C4.25347618,45.5911783 2.48917256,44.0106187 2.48917256,42.0624872 C2.48917256,40.1143557 4.25347618,38.5337962 6.42808297,38.5337962 C8.60268977,38.5337962 10.3669934,40.1143557 10.3669934,42.0624872 C10.3533166,44.0106187 8.58901299,45.5911783 6.42808297,45.5911783 Z M30.0068384,57.7823157 C27.8322316,57.7823157 26.067928,56.2017562 26.067928,54.2536247 C26.067928,52.3054932 27.8322316,50.7249336 30.0068384,50.7249336 C32.1814452,50.7249336 33.9457488,52.3054932 33.9457488,54.2536247 C33.9457488,56.2017562 32.1814452,57.7823157 30.0068384,57.7823157 Z M34.8894461,50.5411476 C33.7132437,49.3036553 31.9626168,48.5072493 30.0068384,48.5072493 C28.0510599,48.5072493 26.3004331,49.2914029 25.1242307,50.5411476 L12.4595395,43.9983663 C12.7057214,43.3979988 12.8424892,42.7363692 12.8424892,42.0624872 C12.8424892,39.232183 10.5584682,36.8797223 7.5495783,36.4018787 L7.53590153,23.5981213 C10.5447914,23.1325301 12.8424892,20.767817 12.8424892,17.9375128 C12.8424892,17.2881356 12.7193982,16.6632632 12.5005699,16.0874004 L25.1789378,9.50786196 C26.3551402,10.7208495 28.0920903,11.4804983 30.0205152,11.4804983 C31.9489401,11.4804983 33.6722134,10.7208495 34.8484158,9.50786196 L47.5267837,16.0874004 C47.3079553,16.6632632 47.1848644,17.2881356 47.1848644,17.9375128 C47.1848644,20.7188074 49.4141783,23.0590157 52.3546843,23.5736165 L52.3546843,36.4141311 C49.4141783,36.9287319 47.1848644,39.2566878 47.1848644,42.0502348 C47.1848644,42.7363692 47.3216321,43.3857464 47.567814,43.9861139 L34.8894461,50.5411476 Z M57.5245042,42.0624872 C57.5245042,44.0106187 55.7602006,45.5911783 53.5855938,45.5911783 C51.410987,45.5911783 49.6466834,44.0106187 49.6466834,42.0624872 C49.6466834,40.1143557 51.410987,38.5337962 53.5855938,38.5337962 C55.7602006,38.5337962 57.5245042,40.1143557 57.5245042,42.0624872 Z" id="Shape" fill="#4B4D66"></path>
                <path d="M36.0023003,34.4041556 L36.0023003,30.4077809 C36.7591903,29.7600504 37.1858011,28.8678934 37.1858011,27.9146297 L37.1858011,22.6716794 C37.1858011,19.4574697 34.2408108,16.8421053 30.6215004,16.8421053 L29.3554298,16.8421053 C25.7361193,16.8421053 22.7911291,19.4574697 22.7911291,22.6716794 L22.7911291,27.9146297 C22.7911291,28.8678934 23.2315015,29.7600504 23.9746299,30.4077809 L23.9746299,34.4041556 C22.5434196,35.0641073 19.1030105,36.7384295 15.8827875,39.0849247 C15.3460836,39.4760072 15.2772755,40.172623 15.7176478,40.6492549 C16.1580202,41.1258867 16.9424335,41.1869933 17.4791373,40.7959108 C21.0434012,38.1927677 24.8966595,36.4695602 25.6397879,36.1518057 C26.1627301,35.9196004 26.4792477,35.4674112 26.4792477,34.941894 L26.4792477,29.8822637 C26.4792477,29.5156238 26.2728232,29.1612053 25.9287823,28.965664 C25.5296948,28.7334587 25.295747,28.3423762 25.295747,27.9146297 L25.295747,22.6716794 C25.295747,20.6796027 27.1260447,19.0541659 29.3691914,19.0541659 L30.635262,19.0541659 C32.8784088,19.0541659 34.7087065,20.6796027 34.7087065,22.6716794 L34.7087065,27.9146297 C34.7087065,28.3301549 34.4747587,28.7212374 34.0756712,28.965664 C33.7316303,29.1734266 33.5252057,29.5156238 33.5252057,29.8822637 L33.5252057,34.941894 C33.5252057,35.4551899 33.855485,35.9196004 34.3784272,36.1518057 C35.1215556,36.4695602 38.9748139,38.204989 42.5390778,40.7959108 C42.7730256,40.9670094 43.0482583,41.0526316 43.323491,41.0526316 C43.6812936,41.0526316 44.0390962,40.9181241 44.2868056,40.6492549 C44.727178,40.172623 44.6446082,39.4760072 44.121666,39.0849247 C40.8739197,36.7384295 37.4335105,35.051886 36.0023003,34.4041556 Z" id="Path" fill="#4B4D66"></path>
            </g>
            <g id="Shape-6" transform="translate(481.000000, 55.000000)" fill="#4B4D66" fill-rule="nonzero">
                <path d="M38.3928571,21.875 L36.0892857,21.875 L36.0892857,14.84375 C36.0892857,6.66015625 29.5433036,0 21.5,0 C13.4566964,0 6.91071429,6.66015625 6.91071429,14.84375 L6.91071429,21.875 L4.60714286,21.875 C2.06361607,21.875 0,23.9746094 0,26.5625 L0,45.3125 C0,47.9003906 2.06361607,50 4.60714286,50 L38.3928571,50 C40.9363839,50 43,47.9003906 43,45.3125 L43,26.5625 C43,23.9746094 40.9363839,21.875 38.3928571,21.875 Z M28.4107143,21.875 L14.5892857,21.875 L14.5892857,14.84375 C14.5892857,10.9667969 17.6895089,7.8125 21.5,7.8125 C25.3104911,7.8125 28.4107143,10.9667969 28.4107143,14.84375 L28.4107143,21.875 Z" id="Shape"></path>
            </g>
            <g id="Shape-5" transform="translate(380.000000, 55.000000)" fill="#A9A9E9" fill-rule="nonzero">
                <path d="M50.5,25 C50.5,38.8071573 39.3071573,50 25.5,50 C11.6928427,50 0.5,38.8071573 0.5,25 C0.5,11.1928427 11.6928427,0 25.5,0 C39.3071573,0 50.5,11.1928427 50.5,25 Z M22.6082661,38.2372984 L41.1566532,19.6889113 C41.7864919,19.0590726 41.7864919,18.0378024 41.1566532,17.4079637 L38.8757056,15.1270161 C38.2458669,14.4970766 37.2245968,14.4970766 36.5946573,15.1270161 L21.4677419,30.2538306 L14.4053427,23.1914315 C13.775504,22.5615927 12.7542339,22.5615927 12.1242944,23.1914315 L9.84334677,25.472379 C9.21350806,26.1022177 9.21350806,27.1234879 9.84334677,27.7533266 L20.3272177,38.2371976 C20.9571573,38.8671371 21.9783266,38.8671371 22.6082661,38.2372984 L22.6082661,38.2372984 Z" id="Shape"></path>
            </g>
        </g>
    </g>
</svg>